<?xml version="1.0" encoding="UTF-8"?>
<svg width="64px" height="64px" viewBox="0 0 64 64" version="1.1" xmlns="http://www.w3.org/2000/svg" xmlns:xlink="http://www.w3.org/1999/xlink">
    <title>img/weather_cloudy-sun-rain</title>
    <defs>
        <filter x="-31.4%" y="-34.6%" width="162.8%" height="169.2%" filterUnits="objectBoundingBox" id="filter-1">
            <feOffset dx="0" dy="2" in="SourceAlpha" result="shadowOffsetOuter1"></feOffset>
            <feGaussianBlur stdDeviation="2.5" in="shadowOffsetOuter1" result="shadowBlurOuter1"></feGaussianBlur>
            <feColorMatrix values="0 0 0 0 0   0 0 0 0 0   0 0 0 0 0  0 0 0 0.12 0" type="matrix" in="shadowBlurOuter1" result="shadowMatrixOuter1"></feColorMatrix>
            <feMerge>
                <feMergeNode in="shadowMatrixOuter1"></feMergeNode>
                <feMergeNode in="SourceGraphic"></feMergeNode>
            </feMerge>
        </filter>
    </defs>
    <g id="img/weather_cloudy-sun-rain" stroke="none" stroke-width="1" fill="none" fill-rule="evenodd">
        <g id="034-cloudy-1" filter="url(#filter-1)" transform="translate(11.000000, 12.000000)" fill-rule="nonzero">
            <g id="Group" transform="translate(18.955318, 0.000000)" fill="#FDD020">
                <path d="M18.9442948,14.5099345 C18.9442948,19.7187743 14.7038153,23.9413919 9.47214741,23.9413919 C4.24083523,23.9413919 0,19.7187743 0,14.5099345 C0,9.30109474 4.24083523,5.07847708 9.47214741,5.07847708 C14.7038153,5.07847708 18.9442948,9.30109474 18.9442948,14.5099345 Z" id="Path"></path>
                <path d="M23.3160552,15.2354312 L21.8588017,15.2354312 C21.4564204,15.2354312 21.130175,14.9105873 21.130175,14.5099345 C21.130175,14.1092818 21.4564204,13.7844378 21.8588017,13.7844378 L23.3160552,13.7844378 C23.7187922,13.7844378 24.0446819,14.1092818 24.0446819,14.5099345 C24.0446819,14.9105873 23.7187922,15.2354312 23.3160552,15.2354312 Z" id="Path"></path>
                <path d="M8.01489396,2.9019869 C7.61251268,2.9019869 7.28626724,2.57714293 7.28626724,2.17649018 L7.28626724,0.725496725 C7.28626724,0.32484397 7.61251268,0 8.01489396,0 C8.417631,0 8.74352069,0.32484397 8.74352069,0.725496725 L8.74352069,2.17649018 C8.74352069,2.57714293 8.417631,2.9019869 8.01489396,2.9019869 Z" id="Path"></path>
                <path d="M18.2156681,6.52947053 C17.9210866,6.52947053 17.6556786,6.35270153 17.542898,6.0813488 C17.4301174,5.81035019 17.492378,5.49861332 17.700862,5.29102495 L19.1581154,3.8400315 C19.3409836,3.65121816 19.6117283,3.57576369 19.866463,3.64200771 C20.1211977,3.70860604 20.3200758,3.90662983 20.3869615,4.16027029 C20.4534913,4.41391074 20.3777113,4.68349227 20.1880834,4.86592921 L18.73083,6.31692266 C18.5942124,6.4529533 18.4092096,6.52947053 18.2156681,6.52947053 Z" id="Path"></path>
            </g>
            <path d="M33.0756628,32.6473526 C35.8233114,32.7128882 38.3909379,31.290943 39.7845076,28.9320159 C41.1777216,26.5727346 41.1777216,23.6473673 39.7845076,21.2880861 C38.3909379,18.929159 35.8233114,17.5072137 33.0756628,17.5727493 C32.5619241,17.5731036 32.0492527,17.6230523 31.5454756,17.7222413 C30.9146869,14.818129 28.3235793,12.7535806 25.3396963,12.7766067 C24.4274898,12.7769609 23.5256007,12.9710879 22.6948667,13.346235 C21.231565,9.60184995 17.3173311,7.40623051 13.3429711,8.10055355 C9.36861118,8.79487659 6.43880595,12.1857236 6.34310256,16.202524 C6.34488141,17.1412771 6.5120956,18.0722368 6.83691794,18.953602 C4.3646391,18.968126 2.09052679,20.3025724 0.880180984,22.4493059 C-0.329808977,24.5960394 -0.289962203,27.2241938 0.985490315,29.3333771 C2.26058708,31.4422063 4.57454617,32.7075745 7.0461135,32.6473526" id="Path" fill="#FFFFFF"></path>
            <path d="M29.884719,35.5749806 C29.884719,37.1775915 28.5800929,38.4769675 26.9702121,38.4769675 C25.360687,38.4769675 24.0557052,37.1775915 24.0557052,35.5749806 C24.0557052,33.3984904 26.9702121,28.3200133 26.9702121,28.3200133 C26.9702121,28.3200133 29.884719,33.3984904 29.884719,35.5749806 Z" id="Path" fill="#A6E2FF"></path>
            <path d="M22.5984517,28.3200133 C22.5984517,29.9226243 21.2938256,31.2220002 19.6839448,31.2220002 C18.0744198,31.2220002 16.7694379,29.9226243 16.7694379,28.3200133 C16.7694379,26.1435231 19.6839448,21.0650461 19.6839448,21.0650461 C19.6839448,21.0650461 22.5984517,26.1435231 22.5984517,28.3200133 Z" id="Path" fill="#A6E2FF"></path>
            <path d="M16.0408112,36.0980131 C16.0408112,37.700624 14.7361851,39 13.1263043,39 C11.5167793,39 10.2117974,37.700624 10.2117974,36.0980131 C10.2117974,33.9215229 13.1263043,28.8430458 13.1263043,28.8430458 C13.1263043,28.8430458 16.0408112,33.9215229 16.0408112,36.0980131 Z" id="Path" fill="#A6E2FF"></path>
        </g>
    </g>
</svg>