<?xml version="1.0" encoding="UTF-8"?>
<svg width="64px" height="64px" viewBox="0 0 64 64" version="1.1" xmlns="http://www.w3.org/2000/svg" xmlns:xlink="http://www.w3.org/1999/xlink">
    <title>img/weather_snow</title>
    <defs>
        <filter x="-33.8%" y="-40.9%" width="167.5%" height="181.8%" filterUnits="objectBoundingBox" id="filter-1">
            <feOffset dx="0" dy="2" in="SourceAlpha" result="shadowOffsetOuter1"></feOffset>
            <feGaussianBlur stdDeviation="2.5" in="shadowOffsetOuter1" result="shadowBlurOuter1"></feGaussianBlur>
            <feColorMatrix values="0 0 0 0 0   0 0 0 0 0   0 0 0 0 0  0 0 0 0.12 0" type="matrix" in="shadowBlurOuter1" result="shadowMatrixOuter1"></feColorMatrix>
            <feMerge>
                <feMergeNode in="shadowMatrixOuter1"></feMergeNode>
                <feMergeNode in="SourceGraphic"></feMergeNode>
            </feMerge>
        </filter>
    </defs>
    <g id="img/weather_snow" stroke="none" stroke-width="1" fill="none" fill-rule="evenodd">
        <g id="Group-2" transform="translate(12.000000, 14.997292)" fill-rule="nonzero">
            <g id="011-cloudy" filter="url(#filter-1)">
                <path d="M32.4111311,9.71775541 C31.906509,9.71775541 31.4028975,9.76800202 30.9083813,9.86815813 C30.5354731,8.00498592 29.3298374,6.41564092 27.6370964,5.55537811 C25.9446924,4.69511521 23.951469,4.65903203 22.2287473,5.45724539 C20.6697414,1.1582916 15.924677,-1.0613283 11.6303366,0.49935245 C7.33599618,2.0600332 5.11875833,6.81053228 6.67776425,11.1091489 C2.91600555,11.2281895 -0.0554704947,14.3451671 0.000785747646,18.1123159 C0.0573788323,21.879802 3.12115562,24.9057285 6.88493554,24.9117986 L32.4111311,24.9117986 C36.6020543,24.9117986 40,21.5105397 40,17.314777 C40,13.1190143 36.6020543,9.71775541 32.4111311,9.71775541 Z" id="Path" fill="#FFFFFF"></path>
                <path d="M23.4166667,23.9193743 L21.9079182,23.9193743 L23.2457682,22.5818092 C23.4667969,22.3528052 23.4636637,21.9890764 23.2386474,21.7640602 C23.0136312,21.5390439 22.6496175,21.5359108 22.4208984,21.7569394 L21.0833333,23.0945045 L21.0833333,21.586041 C21.0833333,21.2638974 20.8221435,21.0027077 20.5,21.0027077 C20.1775715,21.0027077 19.9166667,21.2638974 19.9166667,21.586041 L19.9166667,23.0945045 L18.5791016,21.7569394 C18.3500976,21.5359108 17.9863688,21.5390439 17.7613525,21.7640602 C17.5363362,21.9890764 17.5329182,22.3528052 17.7542318,22.5818092 L19.0917969,23.9193743 L17.5833333,23.9193743 C17.2609049,23.9193743 17,24.1805641 17,24.5027077 C17,24.8248512 17.2609049,25.086041 17.5833333,25.086041 L19.0917969,25.086041 L17.7542318,26.4236061 C17.6024169,26.5700091 17.541748,26.78705 17.5950114,26.9909889 C17.6485596,27.1949276 17.8077799,27.354148 18.0117188,27.4074114 C18.2156575,27.4609596 18.4324137,27.4000058 18.5791016,27.2484759 L19.9166667,25.9109108 L19.9166667,27.4193743 C19.9166667,27.7415178 20.1775715,28.0027077 20.5,28.0027077 C20.8221435,28.0027077 21.0833333,27.7415178 21.0833333,27.4193743 L21.0833333,25.9109108 L22.4208984,27.2484759 C22.6496175,27.4695045 23.0136312,27.4663714 23.2386474,27.2413551 C23.4636637,27.0163388 23.4667969,26.6526099 23.2457682,26.4236061 L21.9079182,25.086041 L23.4166667,25.086041 C23.7388102,25.086041 24,24.8248512 24,24.5027077 C24,24.1805641 23.7388102,23.9193743 23.4166667,23.9193743 L23.4166667,23.9193743 Z" id="Path" fill="#A6E2FF"></path>
                <path d="M35.3333333,27.336041 L33.6090494,27.336041 L35.1380208,25.8073952 C35.390625,25.5456763 35.3870442,25.1299862 35.1298828,24.8728248 C34.8727213,24.6156633 34.4567057,24.6120827 34.1953125,24.8646868 L32.6666667,26.3933327 L32.6666667,24.6693743 C32.6666667,24.3012102 32.368164,24.0027077 32,24.0027077 C31.6315103,24.0027077 31.3333333,24.3012102 31.3333333,24.6693743 L31.3333333,26.3933327 L29.8046875,24.8646868 C29.5429687,24.6120827 29.1272786,24.6156633 28.8701172,24.8728248 C28.6129557,25.1299862 28.6090494,25.5456763 28.8619792,25.8073952 L30.390625,27.336041 L28.6666667,27.336041 C28.298177,27.336041 28,27.6345436 28,28.0027077 C28,28.3708717 28.298177,28.6693743 28.6666667,28.6693743 L30.390625,28.6693743 L28.8619792,30.1980202 C28.6884765,30.3653378 28.6191406,30.6133847 28.680013,30.8464577 C28.7412109,31.0795305 28.923177,31.2614967 29.15625,31.3223691 C29.3893228,31.383567 29.6370442,31.3139055 29.8046875,31.1407285 L31.3333333,29.6120827 L31.3333333,31.336041 C31.3333333,31.704205 31.6315103,32.0027077 32,32.0027077 C32.368164,32.0027077 32.6666667,31.704205 32.6666667,31.336041 L32.6666667,29.6120827 L34.1953125,31.1407285 C34.4567057,31.3933327 34.8727213,31.3897519 35.1298828,31.1325904 C35.3870442,30.875429 35.390625,30.4597388 35.1380208,30.1980202 L33.6090494,28.6693743 L35.3333333,28.6693743 C35.7014973,28.6693743 36,28.3708717 36,28.0027077 C36,27.6345436 35.7014973,27.336041 35.3333333,27.336041 L35.3333333,27.336041 Z" id="Path" fill="#A6E2FF"></path>
                <path d="M12.3333333,28.336041 L10.6090494,28.336041 L12.1380208,26.8073952 C12.390625,26.5456763 12.3870442,26.1299862 12.1298827,25.8728248 C11.8727213,25.6156633 11.4567057,25.6120827 11.1953125,25.8646868 L9.66666667,27.3933327 L9.66666667,25.6693743 C9.66666667,25.3012102 9.368164,25.0027077 9,25.0027077 C8.63151033,25.0027077 8.33333333,25.3012102 8.33333333,25.6693743 L8.33333333,27.3933327 L6.8046875,25.8646868 C6.54296867,25.6120827 6.12727858,25.6156633 5.87011717,25.8728248 C5.61295567,26.1299862 5.60904942,26.5456763 5.86197917,26.8073952 L7.390625,28.336041 L5.66666667,28.336041 C5.298177,28.336041 5,28.6345436 5,29.0027077 C5,29.3708717 5.298177,29.6693743 5.66666667,29.6693743 L7.390625,29.6693743 L5.86197917,31.1980202 C5.6884765,31.3653378 5.61914058,31.6133847 5.680013,31.8464577 C5.74121092,32.0795305 5.923177,32.2614967 6.15625,32.3223691 C6.38932283,32.383567 6.63704425,32.3139055 6.8046875,32.1407285 L8.33333333,30.6120827 L8.33333333,32.336041 C8.33333333,32.704205 8.63151033,33.0027077 9,33.0027077 C9.368164,33.0027077 9.66666667,32.704205 9.66666667,32.336041 L9.66666667,30.6120827 L11.1953125,32.1407285 C11.4567057,32.3933327 11.8727213,32.3897519 12.1298827,32.1325904 C12.3870442,31.875429 12.390625,31.4597388 12.1380208,31.1980202 L10.6090494,29.6693743 L12.3333333,29.6693743 C12.7014973,29.6693743 13,29.3708717 13,29.0027077 C13,28.6345436 12.7014973,28.336041 12.3333333,28.336041 L12.3333333,28.336041 Z" id="Path-Copy-2" fill="#A6E2FF"></path>
                <path d="M31.3535156,18.649192 L30.2067871,17.5027077 L31.5,17.5027077 C31.776123,17.5027077 32,17.2788307 32,17.0027077 C32,16.7265846 31.776123,16.5027077 31.5,16.5027077 L30.2067871,16.5027077 L31.3535156,15.3562233 C31.5429688,15.1599342 31.5402832,14.8481666 31.3474121,14.6552955 C31.154541,14.4624244 30.8425292,14.4597389 30.6464844,14.649192 L29.5,15.7956764 L29.5,14.5027077 C29.5,14.2265846 29.276123,14.0027077 29,14.0027077 C28.7236328,14.0027077 28.5,14.2265846 28.5,14.5027077 L28.5,15.7956764 L27.3535156,14.649192 C27.1572265,14.4597389 26.8454589,14.4624244 26.6525879,14.6552955 C26.4597167,14.8481666 26.4567871,15.1599342 26.6464844,15.3562233 L27.7929688,16.5027077 L26.5,16.5027077 C26.2236328,16.5027077 26,16.7265846 26,17.0027077 C26,17.2788307 26.2236328,17.5027077 26.5,17.5027077 L27.7929688,17.5027077 L26.6464844,18.649192 C26.5163574,18.7746803 26.4643554,18.9607154 26.5100098,19.1355202 C26.5559082,19.3103248 26.6923828,19.4467994 26.8671875,19.4924537 C27.0419921,19.5383522 27.2277832,19.486106 27.3535156,19.3562233 L28.5,18.2097389 L28.5,19.5027077 C28.5,19.7788307 28.7236328,20.0027077 29,20.0027077 C29.276123,20.0027077 29.5,19.7788307 29.5,19.5027077 L29.5,18.2097389 L30.6464844,19.3562233 C30.8425292,19.5456764 31.154541,19.5429908 31.3474121,19.3501197 C31.5402832,19.1572487 31.5429688,18.845481 31.3535156,18.649192 Z" id="Path" fill="#A6E2FF"></path>
                <path d="M14.3535156,20.649192 L13.2067871,19.5027077 L14.5,19.5027077 C14.776123,19.5027077 15,19.2788307 15,19.0027077 C15,18.7265846 14.776123,18.5027077 14.5,18.5027077 L13.2067871,18.5027077 L14.3535156,17.3562233 C14.5429688,17.1599342 14.5402832,16.8481666 14.3474121,16.6552955 C14.154541,16.4624244 13.8425293,16.4597389 13.6464844,16.649192 L12.5,17.7956764 L12.5,16.5027077 C12.5,16.2265846 12.276123,16.0027077 12,16.0027077 C11.7236328,16.0027077 11.5,16.2265846 11.5,16.5027077 L11.5,17.7956764 L10.3535156,16.649192 C10.1572265,16.4597389 9.84545894,16.4624244 9.65258788,16.6552955 C9.45971675,16.8481666 9.45678706,17.1599342 9.64648438,17.3562233 L10.7929688,18.5027077 L9.5,18.5027077 C9.22363275,18.5027077 9,18.7265846 9,19.0027077 C9,19.2788307 9.22363275,19.5027077 9.5,19.5027077 L10.7929688,19.5027077 L9.64648438,20.649192 C9.51635738,20.7746803 9.46435544,20.9607154 9.51000975,21.1355202 C9.55590819,21.3103248 9.69238275,21.4467994 9.8671875,21.4924537 C10.0419921,21.5383522 10.2277832,21.486106 10.3535156,21.3562233 L11.5,20.2097389 L11.5,21.5027077 C11.5,21.7788307 11.7236328,22.0027077 12,22.0027077 C12.276123,22.0027077 12.5,21.7788307 12.5,21.5027077 L12.5,20.2097389 L13.6464844,21.3562233 C13.8425293,21.5456764 14.154541,21.5429908 14.3474121,21.3501197 C14.5402832,21.1572487 14.5429688,20.845481 14.3535156,20.649192 Z" id="Path-Copy-3" fill="#A6E2FF"></path>
            </g>
        </g>
    </g>
</svg>