<?xml version="1.0" encoding="UTF-8"?>
<svg width="64px" height="64px" viewBox="0 0 64 64" version="1.1" xmlns="http://www.w3.org/2000/svg" xmlns:xlink="http://www.w3.org/1999/xlink">
    <title>img/weather_cloudy-rain</title>
    <defs>
        <filter x="-33.8%" y="-39.7%" width="167.5%" height="179.3%" filterUnits="objectBoundingBox" id="filter-1">
            <feOffset dx="0" dy="2" in="SourceAlpha" result="shadowOffsetOuter1"></feOffset>
            <feGaussianBlur stdDeviation="2.5" in="shadowOffsetOuter1" result="shadowBlurOuter1"></feGaussianBlur>
            <feColorMatrix values="0 0 0 0 0   0 0 0 0 0   0 0 0 0 0  0 0 0 0.12 0" type="matrix" in="shadowBlurOuter1" result="shadowMatrixOuter1"></feColorMatrix>
            <feMerge>
                <feMergeNode in="shadowMatrixOuter1"></feMergeNode>
                <feMergeNode in="SourceGraphic"></feMergeNode>
            </feMerge>
        </filter>
    </defs>
    <g id="img/weather_cloudy-rain" stroke="none" stroke-width="1" fill="none" fill-rule="evenodd">
        <g id="Group-2" transform="translate(12.000000, 14.997292)">
            <g id="011-cloudy" filter="url(#filter-1)" transform="translate(0.000000, -0.000000)">
                <path d="M32.4111311,9.71775541 C31.906509,9.71775541 31.4028975,9.76800202 30.9083813,9.86815813 C30.5354731,8.00498592 29.3298374,6.41564092 27.6370964,5.55537811 C25.9446924,4.69511521 23.951469,4.65903203 22.2287473,5.45724539 C20.6697414,1.1582916 15.924677,-1.0613283 11.6303366,0.49935245 C7.33599618,2.0600332 5.11875833,6.81053228 6.67776425,11.1091489 C2.91600555,11.2281895 -0.0554704947,14.3451671 0.000785747646,18.1123159 C0.0573788323,21.879802 3.12115562,24.9057285 6.88493554,24.9117986 L32.4111311,24.9117986 C36.6020543,24.9117986 40,21.5105397 40,17.314777 C40,13.1190143 36.6020543,9.71775541 32.4111311,9.71775541 Z" id="Path" fill="#FFFFFF" fill-rule="nonzero"></path>
                <path d="M14.5,17.0027077 C15.0522847,17.0027077 15.5,17.4504229 15.5,18.0027077 L15.5,31.0027077 C15.5,31.5549924 15.0522847,32.0027077 14.5,32.0027077 C13.9477153,32.0027077 13.5,31.5549924 13.5,31.0027077 L13.5,18.0027077 C13.5,17.4504229 13.9477153,17.0027077 14.5,17.0027077 Z" id="Rectangle" fill="#A6E2FF" transform="translate(14.500000, 24.502708) rotate(8.000000) translate(-14.500000, -24.502708) "></path>
                <path d="M25.5,17.0027077 C26.0522847,17.0027077 26.5,17.4504229 26.5,18.0027077 L26.5,31.0027077 C26.5,31.5549924 26.0522847,32.0027077 25.5,32.0027077 C24.9477153,32.0027077 24.5,31.5549924 24.5,31.0027077 L24.5,18.0027077 C24.5,17.4504229 24.9477153,17.0027077 25.5,17.0027077 Z" id="Rectangle-Copy-2" fill="#A6E2FF" transform="translate(25.500000, 24.502708) rotate(8.000000) translate(-25.500000, -24.502708) "></path>
                <path d="M20,14.0027077 C20.5522847,14.0027077 21,14.4504229 21,15.0027077 L21,33.0027077 C21,33.5549924 20.5522847,34.0027077 20,34.0027077 C19.4477153,34.0027077 19,33.5549924 19,33.0027077 L19,15.0027077 C19,14.4504229 19.4477153,14.0027077 20,14.0027077 Z" id="Rectangle-Copy" fill="#A6E2FF" transform="translate(20.000000, 24.002708) rotate(8.000000) translate(-20.000000, -24.002708) "></path>
                <path d="M9,15.0027077 C9.55228475,15.0027077 10,15.4504229 10,16.0027077 L10,32.0027077 C10,32.5549924 9.55228475,33.0027077 9,33.0027077 C8.44771525,33.0027077 8,32.5549924 8,32.0027077 L8,16.0027077 C8,15.4504229 8.44771525,15.0027077 9,15.0027077 Z" id="Rectangle-Copy-4" fill="#A6E2FF" transform="translate(9.000000, 24.002708) rotate(8.000000) translate(-9.000000, -24.002708) "></path>
                <path d="M31,16.0027077 C31.5522847,16.0027077 32,16.4504229 32,17.0027077 L32,32.0027077 C32,32.5549924 31.5522847,33.0027077 31,33.0027077 C30.4477153,33.0027077 30,32.5549924 30,32.0027077 L30,17.0027077 C30,16.4504229 30.4477153,16.0027077 31,16.0027077 Z" id="Rectangle-Copy-3" fill="#A6E2FF" transform="translate(31.000000, 24.502708) rotate(8.000000) translate(-31.000000, -24.502708) "></path>
            </g>
        </g>
    </g>
</svg>