<?xml version="1.0" encoding="UTF-8"?>
<svg width="64px" height="64px" viewBox="0 0 64 64" version="1.1" xmlns="http://www.w3.org/2000/svg" xmlns:xlink="http://www.w3.org/1999/xlink">
    <title>img/weather_overcast</title>
    <defs>
        <filter x="-30.7%" y="-43.7%" width="161.4%" height="187.4%" filterUnits="objectBoundingBox" id="filter-1">
            <feOffset dx="0" dy="2" in="SourceAlpha" result="shadowOffsetOuter1"></feOffset>
            <feGaussianBlur stdDeviation="2.5" in="shadowOffsetOuter1" result="shadowBlurOuter1"></feGaussianBlur>
            <feColorMatrix values="0 0 0 0 0   0 0 0 0 0   0 0 0 0 0  0 0 0 0.12 0" type="matrix" in="shadowBlurOuter1" result="shadowMatrixOuter1"></feColorMatrix>
            <feMerge>
                <feMergeNode in="shadowMatrixOuter1"></feMergeNode>
                <feMergeNode in="SourceGraphic"></feMergeNode>
            </feMerge>
        </filter>
    </defs>
    <g id="img/weather_overcast" stroke="none" stroke-width="1" fill="none" fill-rule="evenodd">
        <g id="Group" filter="url(#filter-1)" transform="translate(10.000000, 16.000000)" fill-rule="nonzero">
            <path d="M29.170018,8.97198867 C28.7158581,8.97198867 28.2626077,9.01837922 27.8175432,9.11084908 C27.4819258,7.39066172 26.3968536,5.92328734 24.8733868,5.12904342 C23.3502232,4.33479941 21.5563221,4.30148536 20.0058726,5.03844167 C18.6027672,1.06940118 14.3322093,-0.979879103 10.467303,0.461030797 C6.60239656,1.9019407 4.60688249,6.28787368 6.00998783,10.2566028 C2.624405,10.366508 -0.0499234452,13.2442803 0.000707172882,16.7223279 C0.051640949,20.200687 2.80904006,22.9943958 6.19644199,23 L29.170018,23 C32.9418488,23 36,19.859763 36,15.9859943 C36,12.1122258 32.9418488,8.97198867 29.170018,8.97198867 Z" id="Path-Copy-3" fill="#CFC9C9"></path>
            <path d="M37.170018,10.9719887 C36.7158581,10.9719887 36.2626077,11.0183792 35.8175432,11.1108491 C35.4819258,9.39066172 34.3968536,7.92328734 32.8733868,7.12904342 C31.3502232,6.33479941 29.5563221,6.30148536 28.0058726,7.03844167 C26.6027672,3.06940118 22.3322093,1.0201209 18.467303,2.4610308 C14.6023966,3.9019407 12.6068825,8.28787368 14.0099878,12.2566028 C10.624405,12.366508 7.95007655,15.2442803 8.00070717,18.7223279 C8.05164095,22.200687 10.8090401,24.9943958 14.196442,25 L37.170018,25 C40.9418488,25 44,21.859763 44,17.9859943 C44,14.1122258 40.9418488,10.9719887 37.170018,10.9719887 Z" id="Path-Copy" fill="#E8E3E3"></path>
            <path d="M34.4111311,15.7150478 C33.906509,15.7150478 33.4028975,15.7652944 32.9083813,15.8654505 C32.5354731,14.0022783 31.3298374,12.4129333 29.6370964,11.5526704 C27.9446924,10.6924076 25.951469,10.6563244 24.2287473,11.4545377 C22.6697414,7.15558394 17.924677,4.93596405 13.6303366,6.49664479 C9.33599618,8.05732554 7.11875833,12.8078246 8.67776425,17.1064412 C4.91600555,17.2254819 1.94452951,20.3424595 2.00078575,24.1096082 C2.05737883,27.8770943 5.12115562,30.9030209 8.88493554,30.9090909 L34.4111311,30.9090909 C38.6020543,30.9090909 42,27.5078321 42,23.3120693 C42,19.1163067 38.6020543,15.7150478 34.4111311,15.7150478 Z" id="Path-Copy-2" fill="#FFFFFF"></path>
        </g>
    </g>
</svg>