<?xml version="1.0" encoding="UTF-8"?>
<svg width="64px" height="64px" viewBox="0 0 64 64" version="1.1" xmlns="http://www.w3.org/2000/svg" xmlns:xlink="http://www.w3.org/1999/xlink">
    <title>img/weather_cloudy-rain-snow</title>
    <defs>
        <filter x="-33.8%" y="-39.7%" width="167.5%" height="179.3%" filterUnits="objectBoundingBox" id="filter-1">
            <feOffset dx="0" dy="2" in="SourceAlpha" result="shadowOffsetOuter1"></feOffset>
            <feGaussianBlur stdDeviation="2.5" in="shadowOffsetOuter1" result="shadowBlurOuter1"></feGaussianBlur>
            <feColorMatrix values="0 0 0 0 0   0 0 0 0 0   0 0 0 0 0  0 0 0 0.12 0" type="matrix" in="shadowBlurOuter1" result="shadowMatrixOuter1"></feColorMatrix>
            <feMerge>
                <feMergeNode in="shadowMatrixOuter1"></feMergeNode>
                <feMergeNode in="SourceGraphic"></feMergeNode>
            </feMerge>
        </filter>
    </defs>
    <g id="img/weather_cloudy-rain-snow" stroke="none" stroke-width="1" fill="none" fill-rule="evenodd">
        <g id="011-cloudy" filter="url(#filter-1)" transform="translate(12.000000, 14.997292)">
            <path d="M32.4111311,9.71775541 C31.906509,9.71775541 31.4028975,9.76800202 30.9083813,9.86815813 C30.5354731,8.00498592 29.3298374,6.41564092 27.6370964,5.55537811 C25.9446924,4.69511521 23.951469,4.65903203 22.2287473,5.45724539 C20.6697414,1.1582916 15.924677,-1.0613283 11.6303366,0.49935245 C7.33599618,2.0600332 5.11875833,6.81053228 6.67776425,11.1091489 C2.91600555,11.2281895 -0.0554704947,14.3451671 0.000785747646,18.1123159 C0.0573788323,21.879802 3.12115562,24.9057285 6.88493554,24.9117986 L32.4111311,24.9117986 C36.6020543,24.9117986 40,21.5105397 40,17.314777 C40,13.1190143 36.6020543,9.71775541 32.4111311,9.71775541 Z" id="Path" fill="#FFFFFF" fill-rule="nonzero"></path>
            <path d="M12.2304592,16.0027077 C12.7827439,16.0027077 13.2304592,16.4504229 13.2304592,17.0027077 L13.2304592,31.0027077 C13.2304592,31.5549924 12.7827439,32.0027077 12.2304592,32.0027077 C11.6781744,32.0027077 11.2304592,31.5549924 11.2304592,31.0027077 L11.2304592,17.0027077 C11.2304592,16.4504229 11.6781744,16.0027077 12.2304592,16.0027077 Z" id="Rectangle" fill="#A6E2FF" transform="translate(12.230459, 24.002708) rotate(8.000000) translate(-12.230459, -24.002708) "></path>
            <path d="M16.548074,14.0027077 C17.1003588,14.0027077 17.548074,14.4504229 17.548074,15.0027077 L17.548074,33.0027077 C17.548074,33.5549924 17.1003588,34.0027077 16.548074,34.0027077 C15.9957893,34.0027077 15.548074,33.5549924 15.548074,33.0027077 L15.548074,15.0027077 C15.548074,14.4504229 15.9957893,14.0027077 16.548074,14.0027077 Z" id="Rectangle-Copy" fill="#A6E2FF" transform="translate(16.548074, 24.002708) rotate(8.000000) translate(-16.548074, -24.002708) "></path>
            <path d="M8,15.0027077 C8.55228475,15.0027077 9,15.4504229 9,16.0027077 L9,32.0027077 C9,32.5549924 8.55228475,33.0027077 8,33.0027077 C7.44771525,33.0027077 7,32.5549924 7,32.0027077 L7,16.0027077 C7,15.4504229 7.44771525,15.0027077 8,15.0027077 Z" id="Rectangle-Copy-4" fill="#A6E2FF" transform="translate(8.000000, 24.002708) rotate(8.000000) translate(-8.000000, -24.002708) "></path>
            <path d="M26.4166667,22.9193743 L24.9079182,22.9193743 L26.2457682,21.5818092 C26.4667969,21.3528052 26.4636637,20.9890764 26.2386474,20.7640602 C26.0136312,20.5390439 25.6496175,20.5359108 25.4208984,20.7569394 L24.0833333,22.0945045 L24.0833333,20.586041 C24.0833333,20.2638974 23.8221435,20.0027077 23.5,20.0027077 C23.1775715,20.0027077 22.9166667,20.2638974 22.9166667,20.586041 L22.9166667,22.0945045 L21.5791016,20.7569394 C21.3500976,20.5359108 20.9863688,20.5390439 20.7613525,20.7640602 C20.5363362,20.9890764 20.5329182,21.3528052 20.7542318,21.5818092 L22.0917969,22.9193743 L20.5833333,22.9193743 C20.2609049,22.9193743 20,23.1805641 20,23.5027077 C20,23.8248512 20.2609049,24.086041 20.5833333,24.086041 L22.0917969,24.086041 L20.7542318,25.4236061 C20.6024169,25.5700091 20.541748,25.78705 20.5950114,25.9909889 C20.6485596,26.1949276 20.8077799,26.354148 21.0117188,26.4074114 C21.2156575,26.4609596 21.4324137,26.4000058 21.5791016,26.2484759 L22.9166667,24.9109108 L22.9166667,26.4193743 C22.9166667,26.7415178 23.1775715,27.0027077 23.5,27.0027077 C23.8221435,27.0027077 24.0833333,26.7415178 24.0833333,26.4193743 L24.0833333,24.9109108 L25.4208984,26.2484759 C25.6496175,26.4695045 26.0136312,26.4663714 26.2386474,26.2413551 C26.4636637,26.0163388 26.4667969,25.6526099 26.2457682,25.4236061 L24.9079182,24.086041 L26.4166667,24.086041 C26.7388102,24.086041 27,23.8248512 27,23.5027077 C27,23.1805641 26.7388102,22.9193743 26.4166667,22.9193743 L26.4166667,22.9193743 Z" id="Path" fill="#A6E2FF" fill-rule="nonzero"></path>
            <path d="M35.3333333,27.336041 L33.6090494,27.336041 L35.1380208,25.8073952 C35.390625,25.5456763 35.3870442,25.1299862 35.1298828,24.8728248 C34.8727213,24.6156633 34.4567057,24.6120827 34.1953125,24.8646868 L32.6666667,26.3933327 L32.6666667,24.6693743 C32.6666667,24.3012102 32.368164,24.0027077 32,24.0027077 C31.6315103,24.0027077 31.3333333,24.3012102 31.3333333,24.6693743 L31.3333333,26.3933327 L29.8046875,24.8646868 C29.5429687,24.6120827 29.1272786,24.6156633 28.8701172,24.8728248 C28.6129557,25.1299862 28.6090494,25.5456763 28.8619792,25.8073952 L30.390625,27.336041 L28.6666667,27.336041 C28.298177,27.336041 28,27.6345436 28,28.0027077 C28,28.3708717 28.298177,28.6693743 28.6666667,28.6693743 L30.390625,28.6693743 L28.8619792,30.1980202 C28.6884765,30.3653378 28.6191406,30.6133847 28.680013,30.8464577 C28.7412109,31.0795305 28.923177,31.2614967 29.15625,31.3223691 C29.3893228,31.383567 29.6370442,31.3139055 29.8046875,31.1407285 L31.3333333,29.6120827 L31.3333333,31.336041 C31.3333333,31.704205 31.6315103,32.0027077 32,32.0027077 C32.368164,32.0027077 32.6666667,31.704205 32.6666667,31.336041 L32.6666667,29.6120827 L34.1953125,31.1407285 C34.4567057,31.3933327 34.8727213,31.3897519 35.1298828,31.1325904 C35.3870442,30.875429 35.390625,30.4597388 35.1380208,30.1980202 L33.6090494,28.6693743 L35.3333333,28.6693743 C35.7014973,28.6693743 36,28.3708717 36,28.0027077 C36,27.6345436 35.7014973,27.336041 35.3333333,27.336041 L35.3333333,27.336041 Z" id="Path" fill="#A6E2FF" fill-rule="nonzero"></path>
            <path d="M31.3535156,18.649192 L30.2067871,17.5027077 L31.5,17.5027077 C31.776123,17.5027077 32,17.2788307 32,17.0027077 C32,16.7265846 31.776123,16.5027077 31.5,16.5027077 L30.2067871,16.5027077 L31.3535156,15.3562233 C31.5429688,15.1599342 31.5402832,14.8481666 31.3474121,14.6552955 C31.154541,14.4624244 30.8425292,14.4597389 30.6464844,14.649192 L29.5,15.7956764 L29.5,14.5027077 C29.5,14.2265846 29.276123,14.0027077 29,14.0027077 C28.7236328,14.0027077 28.5,14.2265846 28.5,14.5027077 L28.5,15.7956764 L27.3535156,14.649192 C27.1572265,14.4597389 26.8454589,14.4624244 26.6525879,14.6552955 C26.4597167,14.8481666 26.4567871,15.1599342 26.6464844,15.3562233 L27.7929688,16.5027077 L26.5,16.5027077 C26.2236328,16.5027077 26,16.7265846 26,17.0027077 C26,17.2788307 26.2236328,17.5027077 26.5,17.5027077 L27.7929688,17.5027077 L26.6464844,18.649192 C26.5163574,18.7746803 26.4643554,18.9607154 26.5100098,19.1355202 C26.5559082,19.3103248 26.6923828,19.4467994 26.8671875,19.4924537 C27.0419921,19.5383522 27.2277832,19.486106 27.3535156,19.3562233 L28.5,18.2097389 L28.5,19.5027077 C28.5,19.7788307 28.7236328,20.0027077 29,20.0027077 C29.276123,20.0027077 29.5,19.7788307 29.5,19.5027077 L29.5,18.2097389 L30.6464844,19.3562233 C30.8425292,19.5456764 31.154541,19.5429908 31.3474121,19.3501197 C31.5402832,19.1572487 31.5429688,18.845481 31.3535156,18.649192 Z" id="Path" fill="#A6E2FF" fill-rule="nonzero"></path>
        </g>
    </g>
</svg>