<?xml version="1.0" encoding="UTF-8"?>
<svg width="64px" height="64px" viewBox="0 0 64 64" version="1.1" xmlns="http://www.w3.org/2000/svg" xmlns:xlink="http://www.w3.org/1999/xlink">
    <title>img/weather_sun</title>
    <defs>
        <filter x="-33.8%" y="-33.8%" width="167.5%" height="167.5%" filterUnits="objectBoundingBox" id="filter-1">
            <feOffset dx="0" dy="2" in="SourceAlpha" result="shadowOffsetOuter1"></feOffset>
            <feGaussianBlur stdDeviation="2.5" in="shadowOffsetOuter1" result="shadowBlurOuter1"></feGaussianBlur>
            <feColorMatrix values="0 0 0 0 0   0 0 0 0 0   0 0 0 0 0  0 0 0 0.12 0" type="matrix" in="shadowBlurOuter1" result="shadowMatrixOuter1"></feColorMatrix>
            <feMerge>
                <feMergeNode in="shadowMatrixOuter1"></feMergeNode>
                <feMergeNode in="SourceGraphic"></feMergeNode>
            </feMerge>
        </filter>
    </defs>
    <g id="img/weather_sun" stroke="none" stroke-width="1" fill="none" fill-rule="evenodd">
        <g id="039-sun" filter="url(#filter-1)" transform="translate(12.000000, 12.000000)" fill="#FDD020" fill-rule="nonzero">
            <path d="M31.3333333,20 C31.3333333,26.2591146 26.2591146,31.3333333 20,31.3333333 C13.7408854,31.3333333 8.66666667,26.2591146 8.66666667,20 C8.66666667,13.7408854 13.7408854,8.66666667 20,8.66666667 C26.2591146,8.66666667 31.3333333,13.7408854 31.3333333,20 Z" id="Path"></path>
            <path d="M20,40 C19.6318359,40 19.3333333,39.7014974 19.3333333,39.3333333 L19.3333333,34 C19.3333333,33.6318359 19.6318359,33.3333333 20,33.3333333 C20.3681641,33.3333333 20.6666667,33.6318359 20.6666667,34 L20.6666667,39.3333333 C20.6666667,39.7014974 20.3681641,40 20,40 Z" id="Path"></path>
            <path d="M20,6.66666667 C19.6318359,6.66666667 19.3333333,6.36816408 19.3333333,6 L19.3333333,0.666666667 C19.3333333,0.298502583 19.6318359,0 20,0 C20.3681641,0 20.6666667,0.298502583 20.6666667,0.666666667 L20.6666667,6 C20.6666667,6.36816408 20.3681641,6.66666667 20,6.66666667 Z" id="Path"></path>
            <line x1="10" y1="10" x2="6" y2="6" id="Path"></line>
            <path d="M10,10.6666667 C9.82324217,10.6666667 9.65364583,10.5963542 9.52864583,10.4713542 L5.52864583,6.47135417 C5.27604167,6.20963542 5.27962242,5.79394533 5.53678383,5.53678383 C5.79394533,5.27962242 6.20963542,5.27604167 6.47135417,5.52864583 L10.4713542,9.52864583 C10.6617838,9.719401 10.7190755,10.0061849 10.6158854,10.2552083 C10.5126953,10.5042318 10.2695313,10.6666667 10,10.6666667 Z" id="Path"></path>
            <line x1="34" y1="34" x2="30" y2="30" id="Path"></line>
            <path d="M34,34.6666667 C33.8232422,34.6666667 33.6536458,34.5963542 33.5286458,34.4713542 L29.5286458,30.4713542 C29.2760417,30.2096354 29.2796224,29.7939453 29.5367838,29.5367838 C29.7939453,29.2796224 30.2096354,29.2760417 30.4713542,29.5286458 L34.4713542,33.5286458 C34.6617838,33.719401 34.7190755,34.0061849 34.6158854,34.2552083 C34.5126953,34.5042318 34.2695313,34.6666667 34,34.6666667 L34,34.6666667 Z" id="Path"></path>
            <line x1="30" y1="10" x2="34" y2="6" id="Path"></line>
            <path d="M30,10.6666667 C29.7304687,10.6666667 29.4873047,10.5042318 29.3841146,10.2552083 C29.2809245,10.0061849 29.3382162,9.719401 29.5286458,9.52864583 L33.5286458,5.52864583 C33.7903646,5.27604167 34.2060547,5.27962242 34.4632162,5.53678383 C34.7203776,5.79394533 34.7239583,6.20963542 34.4713542,6.47135417 L30.4713542,10.4713542 C30.3463542,10.5963542 30.1767578,10.6666667 30,10.6666667 L30,10.6666667 Z" id="Path"></path>
            <path d="M39.3333333,20.6666667 L34,20.6666667 C33.6318359,20.6666667 33.3333333,20.3681641 33.3333333,20 C33.3333333,19.6318359 33.6318359,19.3333333 34,19.3333333 L39.3333333,19.3333333 C39.7014974,19.3333333 40,19.6318359 40,20 C40,20.3681641 39.7014974,20.6666667 39.3333333,20.6666667 Z" id="Path"></path>
            <path d="M6,20.6666667 L0.666666667,20.6666667 C0.298502583,20.6666667 0,20.3681641 0,20 C0,19.6318359 0.298502583,19.3333333 0.666666667,19.3333333 L6,19.3333333 C6.36816408,19.3333333 6.66666667,19.6318359 6.66666667,20 C6.66666667,20.3681641 6.36816408,20.6666667 6,20.6666667 Z" id="Path"></path>
            <line x1="6" y1="34" x2="10" y2="30" id="Path"></line>
            <path d="M6,34.6666667 C5.73046875,34.6666667 5.48730467,34.5042318 5.38411458,34.2552083 C5.2809245,34.0061849 5.33821617,33.719401 5.52864583,33.5286458 L9.52864583,29.5286458 C9.79036458,29.2760417 10.2060547,29.2796224 10.4632162,29.5367838 C10.7203776,29.7939453 10.7239583,30.2096354 10.4713542,30.4713542 L6.47135417,34.4713542 C6.34635417,34.5963542 6.17675783,34.6666667 6,34.6666667 Z" id="Path"></path>
        </g>
    </g>
</svg>