<?xml version="1.0" encoding="UTF-8"?>
<svg width="88px" height="88px" viewBox="0 0 88 88" version="1.1" xmlns="http://www.w3.org/2000/svg" xmlns:xlink="http://www.w3.org/1999/xlink">
    <title>icon/88/end_alert_icon</title>
    <g id="icon/88/end_alert_icon" stroke="none" stroke-width="1" fill="none" fill-rule="evenodd">
        <circle id="Oval" fill="#00AAB5" cx="44" cy="44" r="44"></circle>
        <g id="Plane-2" transform="translate(16.000000, 16.000000)" fill="#FFFFFF">
            <path d="M19.9111111,3.39332015 C20.7604934,3.47579577 21.5493014,3.87908989 22.1234568,4.52442687 C22.8458358,5.50104148 23.2344811,6.69325813 23.2296296,7.91774702 L23.2296296,16.9666008 L36.5037035,27.1465612 L36.5037035,30.5398814 L22.1234568,24.8843478 L22.1234568,37.3265217 L27.6543209,41.8509485 L27.6543209,44.113162 L19.9111111,41.8509485 L12.1679013,44.113162 L12.1679013,41.8509485 L17.6987655,37.3265217 L17.6987655,24.8843478 L3.31851872,30.5398814 L3.31851872,27.1465612 L16.5925926,16.9666008 L16.5925926,7.91774702 C16.5877412,6.69325813 16.9763864,5.50104148 17.6987655,4.52442687 C18.2729209,3.87908989 19.0617288,3.47579577 19.9111111,3.39332015 L19.9111111,3.39332015 Z M19.9111111,1.02873557e-12 C18.1819402,0.0868724059 16.5510261,0.847850787 15.3536791,2.12648063 C13.9944561,3.73386331 13.2550732,5.79289064 13.2740742,7.91774702 L13.2740742,15.2699407 L1.32740763,24.4319051 C0.491785291,25.0727485 2.41734145e-07,26.0784889 2.41734334e-07,27.1465612 L2.41734334e-07,30.5398814 C-0.000416712771,31.658747 0.538575777,32.7059104 1.4407597,33.3390122 C2.34294362,33.972114 3.4923474,34.1097719 4.51318537,33.7069802 L14.380247,29.8272841 L14.380247,35.697728 L10.0993581,39.2041588 C9.31125073,39.8465532 8.85135601,40.8203681 8.84938285,41.8509485 L8.84938285,44.113162 C8.85137723,45.175947 9.34021077,46.1763884 10.1701312,46.8161913 C11.0000516,47.4559941 12.0751839,47.6612464 13.074963,47.3707493 L19.9111111,45.3800015 L26.7472592,47.3707493 C27.7470383,47.6612464 28.8221706,47.4559941 29.652091,46.8161913 C30.4820115,46.1763884 30.970845,45.175947 30.9728394,44.113162 L30.9728394,41.8509485 C30.9708662,40.8203681 30.5109715,39.8465532 29.7228641,39.2041588 L25.4419752,35.697728 L25.4419752,29.8272841 L35.3090369,33.7069802 C36.3298748,34.1097719 37.4792786,33.972114 38.3814625,33.3390122 C39.2836464,32.7059104 39.8226389,31.658747 39.822222,30.5398814 L39.822222,27.1465612 C39.822222,26.0784889 39.3304369,25.0727485 38.4948146,24.4319051 L26.5481481,15.2699407 L26.5481481,7.91774702 C26.5671491,5.79289064 25.8277661,3.73386331 24.4685432,2.12648063 C23.2711962,0.847850787 21.6402821,0.0868724059 19.9111111,0 L19.9111111,1.02873557e-12 Z" id="Shape"></path>
        </g>
        <g id="Group" transform="translate(42.000000, 42.000000)" stroke="#FFFFFF">
            <rect id="Rectangle" stroke-width="3" fill="#00AAB5" x="0" y="0" width="30" height="30" rx="15"></rect>
            <path d="M13.0030053,20.2091123 L7.79927737,14.8121296 C7.38987948,14.4214022 7.40195954,13.8125222 7.8266017,13.4348817 C8.25124385,13.0572411 8.93590572,13.0464981 9.37526354,13.4105817 L13.7909984,18.1067908 L21.180292,10.7661518 C21.6196498,10.4020682 22.3043117,10.4128112 22.7289539,10.7904517 C23.153596,11.1680923 23.1656761,11.7769722 22.7562782,12.1676997 L14.5789915,20.2091123 C14.3700731,20.395138 14.0866375,20.4997685 13.7909984,20.5 C13.4953592,20.4997685 13.2119236,20.395138 13.0030053,20.2091123 Z" id="Shape" fill="#FFFFFF"></path>
        </g>
    </g>
</svg>