<?xml version="1.0" encoding="UTF-8"?>
<svg width="24px" height="24px" viewBox="0 0 24 24" version="1.1" xmlns="http://www.w3.org/2000/svg" xmlns:xlink="http://www.w3.org/1999/xlink">
    <title>icon/24/input_down </title>
    <g id="icon/24/input_down-" stroke="none" stroke-width="1" fill="none" fill-rule="evenodd">
        <rect id="Rectangle" x="0" y="0" width="24" height="24"></rect>
        <path d="M17.4000206,9.27687071 C17.7025147,8.97198934 18.1650834,8.91634635 18.5255186,9.12263933 L18.6303229,9.19239799 L18.7262311,9.27687071 C19.0287252,9.58175208 19.0839325,10.0479714 18.87495,10.4165686 L18.8043126,10.5239601 L18.7262311,10.6135476 L12.6635544,16.7240705 C12.3610603,17.0289519 11.8984915,17.0845949 11.5327805,16.8739631 L11.4262299,16.8027683 L11.3373439,16.7240705 L5.27466719,10.6135476 C4.90844427,10.2444345 4.90844427,9.64598384 5.27466719,9.27687071 C5.5771613,8.97198934 6.03973006,8.91634635 6.40544105,9.12697814 L6.51199168,9.19817295 L6.60086656,9.27685946 L12.0004491,14.7187618 L17.4000206,9.27687071 Z" id="Path" fill="#222222" fill-rule="nonzero"></path>
    </g>
</svg>