<?xml version="1.0" encoding="UTF-8"?>
<svg width="24px" height="24px" viewBox="0 0 24 24" version="1.1" xmlns="http://www.w3.org/2000/svg" xmlns:xlink="http://www.w3.org/1999/xlink">
    <title>icon/24/input_up </title>
    <g id="icon/24/input_up-" stroke="none" stroke-width="1" fill="none" fill-rule="evenodd">
        <rect id="Rectangle" x="0" y="0" width="24" height="24"></rect>
        <path d="M11.4331005,7.19237536 C11.7704789,6.93359867 12.2362087,6.93799673 12.5680879,7.19287346 L12.6633739,7.27683814 L18.7320525,13.3932655 L18.8097171,13.4832959 C19.0664917,13.8233049 19.0621276,14.2926661 18.8042852,14.6317855 L18.7193357,14.7293545 L18.6300018,14.8076246 C18.2926234,15.0664013 17.8268936,15.0620033 17.4950145,14.8071265 L17.3997285,14.7231619 L12.0002842,9.28114575 L6.59426798,14.7293545 L6.50493408,14.8076246 C6.13381785,15.092279 5.6073964,15.0584919 5.27466072,14.7231619 C4.93896428,14.384848 4.91098958,13.8538495 5.19073661,13.4834215 L5.27466072,13.3866422 L11.3437666,7.27064547 L11.4331005,7.19237536 Z" id="Path" fill="#222222" fill-rule="nonzero"></path>
    </g>
</svg>