<?xml version="1.0" encoding="UTF-8"?>
<svg width="24px" height="24px" viewBox="0 0 24 24" version="1.1" xmlns="http://www.w3.org/2000/svg" xmlns:xlink="http://www.w3.org/1999/xlink">
    <title>icon/24/x_icon</title>
    <g id="icon/24/x_icon" stroke="none" stroke-width="1" fill="none" fill-rule="evenodd">
        <rect id="Rectangle" x="0" y="0" width="24" height="24"></rect>
        <g id="Group" transform="translate(5.000000, 5.000000)" fill="#222222" fill-rule="nonzero">
            <path d="M12.4000206,0.27687071 C12.7025147,-0.0280106578 13.1650834,-0.0836536454 13.5255186,0.122639326 L13.6303229,0.192397994 L13.7262311,0.27687071 C14.0287252,0.581752077 14.0839325,1.0479714 13.87495,1.41656856 L13.8043126,1.52396008 L13.7262311,1.6135476 L7.6635544,7.72407052 C7.3610603,8.02895189 6.89849153,8.08459487 6.53278055,7.87396309 L6.42622992,7.80276828 L6.33734388,7.72407052 L0.274667193,1.6135476 C-0.091555731,1.24443447 -0.091555731,0.64598384 0.274667193,0.27687071 C0.577161297,-0.0280106578 1.03973006,-0.0836536454 1.40544105,0.126978136 L1.51199168,0.19817295 L1.60086656,0.27685946 L7.00044914,5.71876177 L12.4000206,0.27687071 Z" id="Path"></path>
            <path d="M12.4000206,6.27687071 C12.7025147,5.97198934 13.1650834,5.91634635 13.5255186,6.12263933 L13.6303229,6.19239799 L13.7262311,6.27687071 C14.0287252,6.58175208 14.0839325,7.0479714 13.87495,7.41656856 L13.8043126,7.52396008 L13.7262311,7.6135476 L7.6635544,13.7240705 C7.3610603,14.0289519 6.89849153,14.0845949 6.53278055,13.8739631 L6.42622992,13.8027683 L6.33734388,13.7240705 L0.274667193,7.6135476 C-0.091555731,7.24443447 -0.091555731,6.64598384 0.274667193,6.27687071 C0.577161297,5.97198934 1.03973006,5.91634635 1.40544105,6.12697814 L1.51199168,6.19817295 L1.60086656,6.27685946 L7.00044914,11.7187618 L12.4000206,6.27687071 Z" id="Path-Copy" transform="translate(7.000000, 10.000000) scale(1, -1) translate(-7.000000, -10.000000) "></path>
        </g>
    </g>
</svg>