<?xml version="1.0" encoding="UTF-8"?>
<svg width="16px" height="16px" viewBox="0 0 16 16" version="1.1" xmlns="http://www.w3.org/2000/svg" xmlns:xlink="http://www.w3.org/1999/xlink">
    <title>icon/16/data</title>
    <defs>
        <filter color-interpolation-filters="auto" id="filter-1">
            <feColorMatrix in="SourceGraphic" type="matrix" values="0 0 0 0 0.639216 0 0 0 0 0.643137 0 0 0 0 0.647059 0 0 0 1.000000 0"></feColorMatrix>
        </filter>
    </defs>
    <g id="icon/16/data" stroke="none" stroke-width="1" fill="none" fill-rule="evenodd">
        <rect id="Rectangle" x="0" y="0" width="16" height="16"></rect>
        <g filter="url(#filter-1)" id="Group">
            <g transform="translate(0.800000, 1.200000)">
                <path d="M13.3835294,1 L1.01647059,1 C0.455089384,1 0,1.449471 0,2.00392157 L0,12.7960784 C0,13.350529 0.455089384,13.8 1.01647059,13.8 L13.3835294,13.8 C13.9449106,13.8 14.4,13.350529 14.4,12.7960784 L14.4,2.00392157 C14.4,1.449471 13.9449106,1 13.3835294,1 Z M13.3835294,12.7960784 L1.01647059,12.7960784 L1.01647059,2.00392157 L13.3835294,2.00392157 L13.3835294,12.7960784 Z" id="Shape" stroke="#222222" stroke-width="0.2" fill="#222222"></path>
                <rect id="Rectangle" stroke="#222222" stroke-width="0.4" fill="#222222" x="2.6" y="0" width="1" height="2.8" rx="0.5"></rect>
                <rect id="Rectangle-Copy-5" stroke="#222222" stroke-width="0.4" fill="#222222" x="5.4" y="0" width="1" height="2.8" rx="0.5"></rect>
                <rect id="Rectangle-Copy-6" stroke="#222222" stroke-width="0.4" fill="#222222" x="8.2" y="0" width="1" height="2.8" rx="0.5"></rect>
                <rect id="Rectangle-Copy-7" stroke="#222222" stroke-width="0.4" fill="#222222" x="11" y="0" width="1" height="2.8" rx="0.5"></rect>
                <rect id="Rectangle-Copy-8" fill="#222222" x="2.7984" y="7.4" width="1.6" height="1.6" rx="0.5"></rect>
                <rect id="Rectangle-Copy-2" fill="#222222" x="5.1984" y="5" width="1.6" height="1.6" rx="0.5"></rect>
                <rect id="Rectangle-Copy-9" fill="#222222" x="5.1984" y="7.4" width="1.6" height="1.6" rx="0.5"></rect>
                <rect id="Rectangle-Copy-3" fill="#222222" x="7.5984" y="5" width="1.6" height="1.6" rx="0.5"></rect>
                <rect id="Rectangle-Copy-10" fill="#222222" x="7.5984" y="7.4" width="1.6" height="1.6" rx="0.5"></rect>
                <rect id="Rectangle-Copy-4" fill="#222222" x="9.9984" y="5" width="1.6" height="1.6" rx="0.5"></rect>
                <rect id="Rectangle-Copy-11" fill="#222222" x="9.9984" y="7.4" width="1.6" height="1.6" rx="0.5"></rect>
                <rect id="Rectangle-Copy-15" fill="#222222" x="2.7984" y="9.8" width="1.6" height="1.6" rx="0.5"></rect>
                <rect id="Rectangle-Copy-14" fill="#222222" x="5.1984" y="9.8" width="1.6" height="1.6" rx="0.5"></rect>
                <rect id="Rectangle-Copy-13" fill="#222222" x="7.5984" y="9.8" width="1.6" height="1.6" rx="0.5"></rect>
            </g>
        </g>
    </g>
</svg>