<?xml version="1.0" encoding="UTF-8"?>
<svg width="16px" height="16px" viewBox="0 0 16 16" version="1.1" xmlns="http://www.w3.org/2000/svg" xmlns:xlink="http://www.w3.org/1999/xlink">
    <title>icon/16/notice_new</title>
    <g id="icon/16/notice_new" stroke="none" stroke-width="1" fill="none" fill-rule="evenodd">
        <rect id="Rectangle" x="0" y="0" width="16" height="16"></rect>
        <path d="M11.1244779,13 C11.6858814,13 12,12.6817874 12,12.126608 L12,3.88016249 C12,3.32498307 11.6925647,3 11.1712615,3 C10.6566416,3 10.342523,3.32498307 10.342523,3.88016249 L10.342523,9.96005416 L10.2823726,9.96005416 L5.79114453,3.52132701 C5.51044277,3.13540961 5.27652464,3 4.89557226,3 C4.34085213,3 4,3.33852404 4,3.90047393 L4,12.1198375 C4,12.6750169 4.31411863,13 4.83542189,13 C5.35004177,13 5.6641604,12.6750169 5.6641604,12.1198375 L5.6641604,6.03317536 L5.72431078,6.03317536 L10.2289056,12.478673 C10.502924,12.8713609 10.7301587,13 11.1244779,13 Z" id="NEW" fill="#FFFFFF" fill-rule="nonzero"></path>
    </g>
</svg>