<?xml version="1.0" encoding="UTF-8"?>
<svg width="16px" height="16px" viewBox="0 0 16 16" version="1.1" xmlns="http://www.w3.org/2000/svg" xmlns:xlink="http://www.w3.org/1999/xlink">
    <title>icon/16/notice_issu</title>
    <defs>
        <filter color-interpolation-filters="auto" id="filter-1">
            <feColorMatrix in="SourceGraphic" type="matrix" values="0 0 0 0 1.000000 0 0 0 0 1.000000 0 0 0 0 1.000000 0 0 0 1.000000 0"></feColorMatrix>
        </filter>
    </defs>
    <g id="icon/16/notice_issu" stroke="none" stroke-width="1" fill="none" fill-rule="evenodd">
        <rect id="Rectangle" x="0" y="0" width="16" height="16"></rect>
        <g filter="url(#filter-1)" id="Share">
            <g transform="translate(1.000000, 3.000000)">
                <path d="M13.5280899,4.37773608 L12.5842697,4.37773608 C12.3236409,4.37773608 12.1123596,4.58773385 12.1123596,4.84677923 C12.1123596,5.10582461 12.3236409,5.31582238 12.5842697,5.31582238 L13.5280899,5.31582238 C13.7887186,5.31582238 14,5.10582461 14,4.84677923 C14,4.58773385 13.7887186,4.37773608 13.5280899,4.37773608 Z" id="Shape" stroke="#FFFFFF" stroke-width="0.1" fill="#FFFFFF"></path>
                <path d="M13.4746067,7.11382112 L12.5307865,6.48843026 C12.3135959,6.34509181 12.0206191,6.40389119 11.8764045,6.61976234 C11.7321899,6.83563349 11.7913487,7.1268304 12.0085393,7.27016884 L12.9523596,7.89555971 C13.1695502,8.0388981 13.4625269,7.98009871 13.6067415,7.76422759 C13.7509561,7.54835646 13.6917973,7.25715959 13.4746067,7.11382112 Z" id="Shape" stroke="#FFFFFF" stroke-width="0.1" fill="#FFFFFF"></path>
                <path d="M12.2602247,3.26141338 C12.3492663,3.26152033 12.4365216,3.23658685 12.5119101,3.18949343 L13.487191,2.56410256 C13.6345933,2.47651354 13.7224853,2.31624905 13.716676,2.14565386 C13.7108668,1.97505866 13.6122735,1.82106759 13.4592501,1.74358499 C13.3062267,1.66610238 13.1229337,1.67736177 12.9806742,1.77298311 L12.0053933,2.39837398 C11.8267375,2.50996098 11.744321,2.72586462 11.8035422,2.92715601 C11.8627633,3.1284474 12.0492285,3.26620265 12.2602247,3.26454033 L12.2602247,3.26141338 Z" id="Shape" stroke="#FFFFFF" stroke-width="0.1" fill="#FFFFFF"></path>
                <path d="M10.3820225,0 L9.12359551,0 C8.60233799,0 8.17977528,0.419995543 8.17977528,0.938086302 L8.17977528,0.966228891 L2.77483146,3.12695434 C2.641832,2.75305544 2.286642,2.50267803 1.88764045,2.50156347 L0.943820225,2.50156347 C0.422562708,2.50156347 0,2.92155902 0,3.43964977 L0,6.56660411 C0,7.08469487 0.422562708,7.50469042 0.943820225,7.50469042 L1.88764045,7.50469042 C2.28548589,7.50225886 2.63907526,7.25212275 2.77168539,6.87929955 L3.35370787,7.13258285 C3.32106125,7.19656794 3.30382859,7.26722081 3.30337079,7.33896184 C3.28542964,8.17580583 3.75469038,8.94787858 4.50831461,9.32145089 C4.78588772,9.45851977 5.0918571,9.52919334 5.40179775,9.52782987 C5.96172301,9.52130745 6.50035733,9.31360477 6.91820225,8.94308941 C6.97868799,8.88992186 7.0242231,8.82203414 7.05033708,8.74609129 L8.19865169,9.24953094 C8.2883653,9.68636607 8.67502737,10.000091 9.12359551,9.99999998 L10.3820225,9.99999998 C10.90328,9.99999998 11.3258427,9.58000444 11.3258427,9.06191368 L11.3258427,0.931832393 C11.322384,0.416185603 10.9008326,-1.14591987e-05 10.3820225,0 Z M1.88764045,6.56660411 L0.943820225,6.56660411 L0.943820225,3.43964977 L1.88764045,3.43964977 L1.88764045,6.56660411 Z M8.17977528,8.286429 L2.83146067,5.91619761 L2.83146067,4.09943714 L8.17977528,1.9449656 L8.17977528,8.286429 Z M4.92988764,8.49280799 C4.55526741,8.3102662 4.30192534,7.9485211 4.25977528,7.53595996 L6.14741573,8.35834895 C5.79472603,8.61573597 5.33082008,8.66696793 4.92988764,8.49280799 L4.92988764,8.49280799 Z M10.3820225,9.06816759 L9.12359551,9.06816759 L9.12359551,0.938086302 L10.3820225,0.938086302 L10.3820225,9.06816759 Z" id="Shape" stroke="#FFFFFF" stroke-width="0.1" fill="#FFFFFF"></path>
            </g>
        </g>
    </g>
</svg>