<?xml version="1.0" encoding="UTF-8"?>
<svg width="16px" height="16px" viewBox="0 0 16 16" version="1.1" xmlns="http://www.w3.org/2000/svg" xmlns:xlink="http://www.w3.org/1999/xlink">
    <title>icon/16/time</title>
    <defs>
        <filter color-interpolation-filters="auto" id="filter-1">
            <feColorMatrix in="SourceGraphic" type="matrix" values="0 0 0 0 0.639216 0 0 0 0 0.643137 0 0 0 0 0.647059 0 0 0 1.000000 0"></feColorMatrix>
        </filter>
    </defs>
    <g id="icon/16/time" stroke="none" stroke-width="1" fill="none" fill-rule="evenodd">
        <rect id="Rectangle" x="0" y="0" width="16" height="16"></rect>
        <g filter="url(#filter-1)" id="Time-2">
            <g transform="translate(1.600000, 1.600000)">
                <path d="M6.4,0 C9.9346224,0 12.8,2.8653776 12.8,6.4 C12.8,9.9346224 9.9346224,12.8 6.4,12.8 C2.8653776,12.8 0,9.9346224 0,6.4 C0,2.8653776 2.8653776,0 6.4,0 Z M6.4,1.25747801 C3.55986353,1.25747801 1.25747801,3.55986353 1.25747801,6.4 C1.25747801,9.24013647 3.55986353,11.542522 6.4,11.542522 C9.24013647,11.542522 11.542522,9.24013647 11.542522,6.4 C11.542522,3.55986353 9.24013647,1.25747801 6.4,1.25747801 Z" id="Shape" fill="#222222"></path>
                <path d="M6.25923754,2.39296188 C6.58477781,2.39296188 6.85253271,2.64037051 6.88473043,2.95741597 L6.88797654,3.02170088 L6.88774194,5.91174194 L9.21524927,5.91202346 C9.51908686,5.91202346 9.77258696,6.12754387 9.83121453,6.41404962 L9.84074216,6.47647755 L9.84398827,6.54076246 C9.84398827,6.86630274 9.59657964,7.13405764 9.27953418,7.16625536 L9.21524927,7.16950147 L5.63049853,7.16950147 L5.63049853,3.02170088 C5.63049853,2.67445792 5.91199457,2.39296188 6.25923754,2.39296188 Z" id="Path" fill="#222222"></path>
            </g>
        </g>
    </g>
</svg>