<?xml version="1.0" encoding="UTF-8"?>
<svg width="44px" height="44px" viewBox="0 0 44 44" version="1.1" xmlns="http://www.w3.org/2000/svg" xmlns:xlink="http://www.w3.org/1999/xlink">
    <title>icon/44/bell</title>
    <defs>
        <filter color-interpolation-filters="auto" id="filter-1">
            <feColorMatrix in="SourceGraphic" type="matrix" values="0 0 0 0 0.133333 0 0 0 0 0.133333 0 0 0 0 0.133333 0 0 0 1.000000 0"></feColorMatrix>
        </filter>
        <circle id="path-2" cx="4" cy="4" r="4"></circle>
        <filter x="-112.5%" y="-87.5%" width="300.0%" height="300.0%" filterUnits="objectBoundingBox" id="filter-3">
            <feOffset dx="-1" dy="1" in="SourceAlpha" result="shadowOffsetOuter1"></feOffset>
            <feGaussianBlur stdDeviation="2.5" in="shadowOffsetOuter1" result="shadowBlurOuter1"></feGaussianBlur>
            <feColorMatrix values="0 0 0 0 0   0 0 0 0 0   0 0 0 0 0  0 0 0 0.2 0" type="matrix" in="shadowBlurOuter1"></feColorMatrix>
        </filter>
    </defs>
    <g id="icon/44/bell" stroke="none" stroke-width="1" fill="none" fill-rule="evenodd">
        <rect id="Rectangle-Copy" x="0" y="0" width="44" height="44"></rect>
        <g filter="url(#filter-1)" id="Notification">
            <g transform="translate(13.000000, 11.000000)">
                <path d="M16.4884007,9.712063 C16.449544,7.87622707 15.774799,6.11140184 14.5802767,4.72128037 C13.9391825,3.95155286 13.1454981,3.32436929 12.2497815,2.87968158 C12.2538146,2.83485586 12.2538146,2.78975616 12.2497815,2.74493045 C12.2497815,1.22894722 11.0261801,0 9.51679136,0 C8.0074026,0 6.78380125,1.22894722 6.78380125,2.74493045 C6.77976812,2.78975616 6.77976812,2.83485586 6.78380125,2.87968158 C5.88808462,3.32436929 5.09440019,3.95155286 4.45330605,4.72128037 C3.2587837,6.11140184 2.58403875,7.87622707 2.54518205,9.712063 C2.54518205,15.0721635 0.895449844,16.7690296 0.691717854,16.9586794 C0.132666431,17.2945728 -0.127417275,17.9692198 0.0606455935,18.5956561 C0.259062101,19.2518945 0.868710064,19.6947998 1.55136747,19.6786559 L6.41112078,19.6786559 C6.13726624,19.9661674 6.13726624,20.4192456 6.41112078,20.7067571 C7.21275408,21.5336094 8.31305994,22 9.46213156,22 C10.6112032,22 11.711509,21.5336094 12.5131423,20.7067571 C12.7684988,20.4234628 12.7684988,19.9918949 12.5131423,19.7086006 L17.4374936,19.7086006 C18.120151,19.7247445 18.729799,19.2818392 18.9282155,18.6256008 C19.1314399,18.00623 18.8924534,17.3271689 18.3468339,16.9736517 C18.1431019,16.784002 16.4884007,15.0821451 16.4884007,9.712063 Z M10.6944616,2.34566784 C9.92750971,2.18528785 9.13588745,2.18528785 8.36893552,2.34566784 C8.56118031,1.85814471 9.01150098,1.52182792 9.53169858,1.47727166 C10.0518962,1.52182792 10.5022168,1.85814471 10.6944616,2.34566784 Z M9.53169858,3.72312384 C12.6820908,3.72312384 14.9976788,6.91722472 14.9976788,9.712063 C14.9697423,11.3942166 15.1652591,13.0726011 15.5790603,14.7028456 L3.48433684,14.7028456 C3.89813805,13.0726011 4.09365483,11.3942166 4.06571837,9.712063 C4.06571837,6.91722472 6.38130635,3.72312384 9.53169858,3.72312384 Z M7.5092859,19.6886375 L11.4348535,19.6886375 C10.9235618,20.2109761 10.226206,20.5073002 9.49691507,20.5121166 C8.75051255,20.5201585 8.03296961,20.2228789 7.5092859,19.6886375 Z M1.58118191,18.1963935 C2.20272985,17.6593589 2.67809394,16.9723935 2.96258418,16.2000804 L16.1057821,16.2000804 C16.3902723,16.9723935 16.8656364,17.6593589 17.4871843,18.1963935 L1.58118191,18.1963935 Z" id="Shape" stroke="#222222" stroke-width="0.4" fill="#222222"></path>
            </g>
        </g>
        <g id="Oval" transform="translate(25.000000, 11.000000)">
            <use fill="black" fill-opacity="1" filter="url(#filter-3)" xlink:href="#path-2"></use>
            <use fill="#E51212" fill-rule="evenodd" xlink:href="#path-2"></use>
        </g>
    </g>
</svg>