<?xml version="1.0" encoding="UTF-8"?>
<svg width="44px" height="44px" viewBox="0 0 44 44" version="1.1" xmlns="http://www.w3.org/2000/svg" xmlns:xlink="http://www.w3.org/1999/xlink">
    <title>icon/44/favorite_off</title>
    <g id="icon/44/favorite_off" stroke="none" stroke-width="1" fill="none" fill-rule="evenodd">
        <rect id="Rectangle" x="0" y="0" width="44" height="44"></rect>
        <path d="M21.7719284,14.3574302 L24.5642472,20.2396278 L30.6142713,20.2396278 L26.4257931,24.3119184 L27.356566,30.6465927 L21.7719284,26.9498578 L16.1872908,30.6465927 L17.5834502,24.3119184 L13.394972,20.2396278 L18.9796096,20.2396278 L21.7719284,14.3574302 L21.7719284,14.3574302 Z M21.7719284,13 C21.2283124,13.0004533 20.7343958,13.3076499 20.5060772,13.7873095 L18.0860676,18.8821976 L13.394972,18.8821976 C12.8306599,18.8826802 12.3221338,19.2134016 12.106248,19.7203229 C11.8903623,20.2272443 12.0095718,20.8106773 12.4083527,21.1988785 L16.0569826,24.7462961 L14.8144007,30.3570076 C14.6947687,30.899377 14.9265884,31.4579483 15.3998728,31.7677067 C15.8731572,32.0774651 16.4926714,32.0760807 16.9644862,31.7642103 L21.7672745,28.5968731 L26.5607551,31.7642103 C27.017662,32.0670151 27.6153232,32.0791111 28.0847949,31.795055 C28.5542666,31.510999 28.8070743,30.9843229 28.7294561,30.4520277 L27.9010682,24.787019 L31.5962367,21.1943537 C31.9911372,20.8063295 32.1085575,20.2260657 31.8942758,19.7215136 C31.6799941,19.2169616 31.1757029,18.8862911 30.6142713,18.8821976 L25.4577892,18.8821976 L23.0377796,13.7873095 C22.809461,13.3076499 22.3155444,13.0004533 21.7719284,13 Z" id="Shape" stroke="#222222" stroke-width="0.6" fill="#222222"></path>
    </g>
</svg>