<?xml version="1.0" encoding="UTF-8"?>
<svg width="44px" height="44px" viewBox="0 0 44 44" version="1.1" xmlns="http://www.w3.org/2000/svg" xmlns:xlink="http://www.w3.org/1999/xlink">
    <title>icon/44/favorite_on</title>
    <g id="icon/44/favorite_on" stroke="none" stroke-width="1" fill="none" fill-rule="evenodd">
        <rect id="Rectangle" x="0" y="0" width="44" height="44"></rect>
        <path d="M21.7719284,12.5 C21.2283124,12.5004533 20.7343958,12.8076499 20.5060772,13.2873095 L18.0860676,18.3821976 L13.394972,18.3821976 C12.8306599,18.3826802 12.3221338,18.7134016 12.106248,19.2203229 C11.8903623,19.7272443 12.0095718,20.3106773 12.4083527,20.6988785 L16.0569826,24.2462961 L14.8144007,29.8570076 C14.6947687,30.399377 14.9265884,30.9579483 15.3998728,31.2677067 C15.8731572,31.5774651 16.4926714,31.5760807 16.9644862,31.2642103 L21.7672745,28.0968731 L26.5607551,31.2642103 C27.017662,31.5670151 27.6153232,31.5791111 28.0847949,31.295055 C28.5542666,31.010999 28.8070743,30.4843229 28.7294561,29.9520277 L27.9010682,24.287019 L31.5962367,20.6943537 C31.9911372,20.3063295 32.1085575,19.7260657 31.8942758,19.2215136 C31.6799941,18.7169616 31.1757029,18.3862911 30.6142713,18.3821976 L25.4577892,18.3821976 L23.0377796,13.2873095 C22.809461,12.8076499 22.3155444,12.5004533 21.7719284,12.5 Z" id="Path" fill="#FDD020"></path>
    </g>
</svg>