<?xml version="1.0" encoding="UTF-8"?>
<svg width="44px" height="44px" viewBox="0 0 44 44" version="1.1" xmlns="http://www.w3.org/2000/svg" xmlns:xlink="http://www.w3.org/1999/xlink">
    <title>icon/44/note</title>
    <g id="icon/44/note" stroke="none" stroke-width="1" fill="none" fill-rule="evenodd">
        <rect id="Rectangle" x="0" y="0" width="44" height="44"></rect>
        <g id="Group-2" transform="translate(12.500000, 13.500000)">
            <g id="Group" stroke="#222222" stroke-linecap="round" stroke-linejoin="round" stroke-width="2">
                <line x1="0" y1="5.5" x2="7" y2="5.5" id="Path-2"></line>
                <line x1="4.83224571e-13" y1="0.5" x2="18" y2="0.5" id="Path-2-Copy"></line>
                <line x1="2.27373675e-13" y1="10.5" x2="4" y2="10.5" id="Path-2-Copy-2"></line>
                <line x1="0" y1="15.5" x2="7" y2="15.5" id="Path-2-Copy-3"></line>
            </g>
            <path d="M18.7944772,6.30061164 C20.8656654,8.59949644 20.9703769,12.0552821 19.1489621,14.4697173 L18.9832515,14.6799973 L18.929066,14.7419831 L21.8647508,17.7290708 L21.8640287,17.7885924 L21.8902272,17.832177 C22.0421486,18.1242331 22.0360383,18.4771899 21.8740226,18.7636922 L21.8059628,18.8677667 L21.7233118,18.9641187 C21.3861311,19.3090033 20.8546603,19.3446563 20.468473,19.0557471 L20.3751494,18.9767492 L17.4726639,16.008551 L17.3833305,16.0658146 C14.8490386,17.5993632 11.5958584,17.0977658 9.61760563,14.8719227 L9.44641328,14.671058 L9.29084006,14.4728569 C7.26351483,11.7832856 7.66572058,7.94044367 10.2052784,5.74943951 C12.7507119,3.55336617 16.5386926,3.79683665 18.7944772,6.30061164 Z M14.2523826,6.27522165 C11.9074844,6.27522165 10.0022959,8.22394034 10.0022959,10.6329434 C10.0022959,13.0419464 11.9074844,14.9906651 14.2523826,14.9906651 C16.5972809,14.9906651 18.5024694,13.0419464 18.5024694,10.6329434 C18.5024694,8.22394034 16.5972809,6.27522165 14.2523826,6.27522165 Z" id="Shape" fill="#222222"></path>
        </g>
    </g>
</svg>