<?xml version="1.0" encoding="UTF-8"?>
<svg width="44px" height="44px" viewBox="0 0 44 44" version="1.1" xmlns="http://www.w3.org/2000/svg" xmlns:xlink="http://www.w3.org/1999/xlink">
    <title>icon/44/reroad_icon</title>
    <g id="icon/44/reroad_icon" stroke="none" stroke-width="1" fill="none" fill-rule="evenodd">
        <rect id="Rectangle" x="0" y="0" width="44" height="44"></rect>
        <g id="Loading" transform="translate(11.000000, 10.500000)" fill="#222222" fill-rule="nonzero">
            <path d="M21.3485896,7.84721001 L21.4483516,8.14055443 C22.9586239,12.5814246 21.2949662,17.4549993 17.3498556,20.1523456 C13.6727183,22.6664734 8.8155937,22.7417261 5.07763849,20.4247369 L4.80616026,20.2509325 L4.66617387,20.1554714 L4.90576076,21.7881587 C4.93474729,21.9813041 4.90850187,22.1765867 4.8325367,22.3535208 L4.76632649,22.4824609 L4.6972815,22.5832694 C4.54773819,22.7768216 4.33595302,22.9139203 4.08077342,22.9755577 L3.94965468,23 L3.82301686,23 C3.32164243,22.9983092 2.88982535,22.6667562 2.76594636,22.2026102 L2.74152993,22.0839255 L2.14170881,18.0241115 C2.09943679,17.7424411 2.17462855,17.4562255 2.35018807,17.2290008 C2.49973138,17.0354486 2.71151656,16.8983499 2.94978336,16.837875 L3.07095801,16.8141163 L7.27069564,16.2340074 C7.87304804,16.1524685 8.43199205,16.5601753 8.51722999,17.148871 C8.59698472,17.6996969 8.2332812,18.2093987 7.69378969,18.3413278 L7.57559129,18.3636933 L6.13152738,18.5611986 L6.22941268,18.6241589 C8.9354726,20.3162229 12.3894496,20.4418041 15.2192751,18.9515513 L15.5001263,18.7971381 L15.7679452,18.6372674 C18.7826348,16.7654051 20.3131253,13.3220845 19.6645005,9.93701004 L19.6071203,9.66270436 L19.6621893,9.47780701 L21.3485896,7.84721001 Z M17.450781,0.0103782454 C18.0129766,-0.0657246913 18.5373587,0.284359635 18.6740123,0.809549385 L18.697233,0.924678729 L19.2970542,4.98449274 C19.3393262,5.26616315 19.2641344,5.5523787 19.0885749,5.77960341 C18.9390316,5.97315563 18.7272464,6.11025438 18.4889796,6.17072922 L18.3678049,6.19448793 L14.1417378,6.77637084 L14.0290159,6.7759228 C13.4256404,6.81676147 12.8997378,6.37479383 12.857028,5.78484386 C12.8171146,5.23351955 13.2135764,4.75275414 13.7468613,4.65897476 L15.8026641,4.37885448 L15.6491061,4.28150745 C14.4614722,3.56559474 13.1129191,3.13539465 11.7170404,3.02734218 L11.3671505,3.00706155 L11.0156831,3.00033025 C8.33747317,2.99156226 5.80123721,4.1613854 4.12422099,6.17807928 C2.51310507,8.11552482 1.86314407,10.6323098 2.33352859,13.0652344 L2.39536258,13.3567404 L2.34046764,13.542398 L0.660722494,15.16656 L0.560474,14.8743472 C-0.916081786,10.5703573 0.59000829,5.83463698 4.31036986,3.0780745 C7.76625823,0.517470631 12.4279333,0.186760316 16.2069837,2.15697262 L16.4959038,2.31306691 L16.6865905,2.42385535 L16.5088583,1.22523923 C16.4348003,0.71375805 16.743112,0.237735897 17.2196664,0.0666873868 L17.3325295,0.032751061 L17.450781,0.0103782454 Z" id="Shape"></path>
        </g>
    </g>
</svg>