<?xml version="1.0" encoding="UTF-8"?>
<svg width="20px" height="20px" viewBox="0 0 20 20" version="1.1" xmlns="http://www.w3.org/2000/svg" xmlns:xlink="http://www.w3.org/1999/xlink">
    <title>icon/20/download</title>
    <g id="icon/20/download" stroke="none" stroke-width="1" fill="none" fill-rule="evenodd">
        <rect id="Rectangle" x="0" y="0" width="20" height="20"></rect>
        <path d="M10,9.25 C10.4142136,9.25 10.75,9.58578644 10.75,10 L10.75,22.5 C10.75,22.9142136 10.4142136,23.25 10,23.25 C9.58578644,23.25 9.25,22.9142136 9.25,22.5 L9.25,10 C9.25,9.58578644 9.58578644,9.25 10,9.25 Z" id="Rectangle" fill="#222222" transform="translate(10.000000, 16.250000) rotate(-270.000000) translate(-10.000000, -16.250000) "></path>
        <path d="M7.21662193,10.1241458 C7.09335027,9.99676801 6.91482938,9.92120141 6.72502578,9.91605667 C6.54169628,9.91468807 6.36511515,9.97697601 6.23342962,10.0894643 C5.93616718,10.3348883 5.92076139,10.7463425 6.19901789,11.0085245 L9.14859482,13.8263979 C9.59284694,14.0578674 10.1447194,14.0578674 10.5889716,13.8263979 L13.7843466,10.9565022 C14.0718845,10.7026183 14.0718845,10.2913259 13.7843466,10.037442 C13.4728172,9.781383 12.9897846,9.781383 12.6782552,10.037442 L10.6872908,11.7715179 L10.6872908,3.65027848 C10.6872908,3.29113959 10.3571481,3 9.94989655,3 C9.54264497,3 9.21250232,3.29113959 9.21250232,3.65027848 L9.21250232,12.0749812 L7.21662193,10.1241458 Z" id="Shape" fill="#222222"></path>
    </g>
</svg>