<?xml version="1.0" encoding="UTF-8"?>
<svg width="20px" height="20px" viewBox="0 0 20 20" version="1.1" xmlns="http://www.w3.org/2000/svg" xmlns:xlink="http://www.w3.org/1999/xlink">
    <title>icon/20/manual</title>
    <g id="icon/20/manual" stroke="none" stroke-width="1" fill="none" fill-rule="evenodd">
        <rect id="Rectangle" x="0" y="0" width="20" height="20"></rect>
        <g id="Book" transform="translate(2.000000, 0.000000)" fill="#222222">
            <path d="M14.6222222,0 L4.07111111,0 C3.79465857,0.00209951479 3.52077068,0.0544282441 3.26222222,0.154545455 C3.26222222,0.154545455 2.90471583,0.346717291 2.49777778,0.627272727 C2.09083973,0.907828164 0.60544152,2.54095872 0.511111111,2.65909091 L0.138610203,3.17806441 C0.0283568141,3.45051207 0.00127317404,3.79605208 2.52637417e-14,4.09090909 L2.52637417e-14,17.7272727 C2.52637417e-14,18.9824653 0.994922778,20 2.22222222,20 L11.5555556,20 C11.9329442,19.9976918 12.3033798,19.8959333 12.6311111,19.7045455 C12.6311111,19.7045455 13.9372797,18.7670147 14.6222222,18.08915 C15.3071647,17.4112853 15.990808,16.8473594 16,15.9090909 L16,0 L14.6222222,0 Z M14.6666667,1.05113625 L14.6666667,15.9090909 C14.6620421,16.1601328 14.5519204,16.3969754 14.3644444,16.5590909 L13.8088889,17.2050313 L13.7777778,1.80909091 L2.94153846,1.80909091 C3.12416584,1.52662221 3.74000341,1.04358218 4.07111111,1.042045 L14.6666667,1.05113625 Z M7.55555556,3.18181818 L9.33333333,3.18181818 L9.33333333,7.21818182 L8.30222222,6.37272727 L7.55555556,7.07727273 L7.55555556,3.18181818 Z M2.22222222,18.6363636 C1.73130244,18.6363636 1.33333333,18.2293498 1.33333333,17.7272727 L1.33333333,4.09090909 C1.33333333,3.58883205 1.73130244,3.18181818 2.22222222,3.18181818 L6.22222222,3.18181818 L6.22222222,10.1954545 L8.36444444,8.17272727 L10.6666667,10.0545455 L10.6666667,3.18181818 L12.4444444,3.18181818 L12.4444444,17.7272727 C12.4444444,18.2293498 12.0464753,18.6363636 11.5555556,18.6363636 L2.22222222,18.6363636 Z" id="Shape"></path>
        </g>
    </g>
</svg>