<?xml version="1.0" encoding="UTF-8"?>
<svg width="20px" height="20px" viewBox="0 0 20 20" version="1.1" xmlns="http://www.w3.org/2000/svg" xmlns:xlink="http://www.w3.org/1999/xlink">
    <title>icon/20/plus</title>
    <g id="icon/20/plus" stroke="none" stroke-width="1" fill="none" fill-rule="evenodd">
        <rect id="Rectangle" x="0" y="0" width="20" height="20"></rect>
        <path d="M10,4 C10.4142136,4 10.75,4.33578644 10.75,4.75 L10.75,15.25 C10.75,15.6642136 10.4142136,16 10,16 C9.58578644,16 9.25,15.6642136 9.25,15.25 L9.25,4.75 C9.25,4.33578644 9.58578644,4 10,4 Z" id="Rectangle" fill="#222222"></path>
        <path d="M10,4 C10.4142136,4 10.75,4.33578644 10.75,4.75 L10.75,15.25 C10.75,15.6642136 10.4142136,16 10,16 C9.58578644,16 9.25,15.6642136 9.25,15.25 L9.25,4.75 C9.25,4.33578644 9.58578644,4 10,4 Z" id="Rectangle" fill="#222222" transform="translate(10.000000, 10.000000) rotate(-270.000000) translate(-10.000000, -10.000000) "></path>
    </g>
</svg>