<?xml version="1.0" encoding="UTF-8"?>
<svg width="20px" height="20px" viewBox="0 0 20 20" version="1.1" xmlns="http://www.w3.org/2000/svg" xmlns:xlink="http://www.w3.org/1999/xlink">
    <title>icon/20/search</title>
    <g id="icon/20/search" stroke="none" stroke-width="1" fill="none" fill-rule="evenodd">
        <rect id="Rectangle" x="0" y="0" width="20" height="20"></rect>
        <path d="M16.8553875,16.5592524 L13.5362864,13.198636 C15.8619163,10.8164639 15.9327818,6.99250324 13.697068,4.52272711 C11.4613542,2.05295099 7.71179677,1.81308853 5.18996727,3.97852044 C2.66813777,6.14395236 2.2682223,9.94686338 4.28262788,12.6066713 C6.29703345,15.2664793 10.0114955,15.8400739 12.7101032,13.9080588 L16.0938621,17.3527821 C16.3061623,17.5541695 16.6369948,17.5482272 16.8421842,17.3393409 C17.0473737,17.1304546 17.0532109,16.7936616 16.8553875,16.5775365 L16.8553875,16.5592524 Z M4.17167959,8.81045349 C4.17167959,5.98300619 6.42321322,3.69090727 9.20062071,3.69090727 C11.9780282,3.69090727 14.2295618,5.98300619 14.2295618,8.81045349 C14.2295618,11.6379008 11.9780282,13.9299997 9.20062071,13.9299997 C6.42321322,13.9299997 4.17167959,11.6379008 4.17167959,8.81045349 Z" id="Shape" stroke="#222222" stroke-width="0.3" fill="#222222"></path>
    </g>
</svg>