<?xml version="1.0" encoding="UTF-8"?>
<svg width="20px" height="20px" viewBox="0 0 20 20" version="1.1" xmlns="http://www.w3.org/2000/svg" xmlns:xlink="http://www.w3.org/1999/xlink">
    <title>icon/20/time</title>
    <defs>
        <filter color-interpolation-filters="auto" id="filter-1">
            <feColorMatrix in="SourceGraphic" type="matrix" values="0 0 0 0 0.133333 0 0 0 0 0.133333 0 0 0 0 0.133333 0 0 0 1.000000 0"></feColorMatrix>
        </filter>
    </defs>
    <g id="icon/20/time" stroke="none" stroke-width="1" fill="none" fill-rule="evenodd">
        <rect id="Rectangle" x="0" y="0" width="20" height="20"></rect>
        <g filter="url(#filter-1)" id="Time-2">
            <g transform="translate(2.000000, 2.000000)">
                <path d="M8,0 C12.418278,0 16,3.581722 16,8 C16,12.418278 12.418278,16 8,16 C3.581722,16 0,12.418278 0,8 C0,3.581722 3.581722,0 8,0 Z M8,1.57184751 C4.44982941,1.57184751 1.57184751,4.44982941 1.57184751,8 C1.57184751,11.5501706 4.44982941,14.4281525 8,14.4281525 C11.5501706,14.4281525 14.4281525,11.5501706 14.4281525,8 C14.4281525,4.44982941 11.5501706,1.57184751 8,1.57184751 Z" id="Shape" fill="#222222"></path>
                <path d="M7.82404692,2.99120235 C8.23097227,2.99120235 8.56566589,3.30046313 8.60591304,3.69676996 L8.60997067,3.7771261 L8.60967742,7.38967742 L11.5190616,7.39002933 C11.8988586,7.39002933 12.2157337,7.65942983 12.2890182,8.01756203 L12.3009277,8.09559694 L12.3049853,8.17595308 C12.3049853,8.58287843 11.9957246,8.91757205 11.5994177,8.9578192 L11.5190616,8.96187683 L7.03812317,8.96187683 L7.03812317,3.7771261 C7.03812317,3.3430724 7.38999322,2.99120235 7.82404692,2.99120235 Z" id="Path" fill="#222222"></path>
            </g>
        </g>
    </g>
</svg>