<?xml version="1.0" encoding="UTF-8"?>
<svg width="20px" height="20px" viewBox="0 0 20 20" version="1.1" xmlns="http://www.w3.org/2000/svg" xmlns:xlink="http://www.w3.org/1999/xlink">
    <title>icon/20/tooltip_e</title>
    <defs>
        <filter color-interpolation-filters="auto" id="filter-1">
            <feColorMatrix in="SourceGraphic" type="matrix" values="0 0 0 0 0.600000 0 0 0 0 0.600000 0 0 0 0 0.600000 0 0 0 1.000000 0"></feColorMatrix>
        </filter>
    </defs>
    <g id="icon/20/tooltip_e" stroke="none" stroke-width="1" fill="none" fill-rule="evenodd">
        <rect id="Rectangle" x="0" y="0" width="20" height="20"></rect>
        <g filter="url(#filter-1)" id="Group-2">
            <g transform="translate(2.000000, 2.000000)">
                <path d="M8,0 C12.418278,0 16,3.581722 16,8 C16,12.418278 12.418278,16 8,16 C3.581722,16 0,12.418278 0,8 C0,3.581722 3.581722,0 8,0 Z M8,1.57184751 C4.44982941,1.57184751 1.57184751,4.44982941 1.57184751,8 C1.57184751,11.5501706 4.44982941,14.4281525 8,14.4281525 C11.5501706,14.4281525 14.4281525,11.5501706 14.4281525,8 C14.4281525,4.44982941 11.5501706,1.57184751 8,1.57184751 Z" id="Shape" fill="#222222"></path>
            </g>
        </g>
        <g id="Group" transform="translate(9.000000, 5.750000)" fill="#999999">
            <path d="M0.902662414,0 L1.09733759,0 C1.55757488,2.64780836e-17 1.93067092,0.373096042 1.93067092,0.833333333 C1.93067092,0.855511274 1.92978557,0.877680375 1.92801699,0.899787685 L1.53987261,5.75159236 C1.51735514,6.03306074 1.28236764,6.25 1,6.25 C0.717632357,6.25 0.482644859,6.03306074 0.460127389,5.75159236 L0.0719830148,0.899787685 C0.0352812897,0.441016121 0.377436498,0.0393556597 0.836208062,0.00265393455 C0.858315372,0.000885349749 0.880484473,-1.06948281e-16 0.902662414,0 Z" id="Rectangle"></path>
        </g>
        <ellipse id="Oval" fill="#999999" cx="10" cy="13.2" rx="1" ry="1"></ellipse>
    </g>
</svg>