<?xml version="1.0" encoding="UTF-8"?>
<svg width="20px" height="20px" viewBox="0 0 20 20" version="1.1" xmlns="http://www.w3.org/2000/svg" xmlns:xlink="http://www.w3.org/1999/xlink">
    <title>icon/20/tooltip</title>
    <defs>
        <filter color-interpolation-filters="auto" id="filter-1">
            <feColorMatrix in="SourceGraphic" type="matrix" values="0 0 0 0 0.600000 0 0 0 0 0.600000 0 0 0 0 0.600000 0 0 0 1.000000 0"></feColorMatrix>
        </filter>
    </defs>
    <g id="icon/20/tooltip" stroke="none" stroke-width="1" fill="none" fill-rule="evenodd">
        <rect id="Rectangle" x="0" y="0" width="20" height="20"></rect>
        <g filter="url(#filter-1)" id="Group-2">
            <g transform="translate(2.000000, 2.000000)">
                <path d="M8,0 C12.418278,0 16,3.581722 16,8 C16,12.418278 12.418278,16 8,16 C3.581722,16 0,12.418278 0,8 C0,3.581722 3.581722,0 8,0 Z M8,1.57184751 C4.44982941,1.57184751 1.57184751,4.44982941 1.57184751,8 C1.57184751,11.5501706 4.44982941,14.4281525 8,14.4281525 C11.5501706,14.4281525 14.4281525,11.5501706 14.4281525,8 C14.4281525,4.44982941 11.5501706,1.57184751 8,1.57184751 Z" id="Shape" fill="#222222"></path>
                <g id="Group" transform="translate(5.500000, 4.000000)" fill="#222222">
                    <path d="M2.5,0 C0.523529412,0 0,1.51124632 0,2.30842105 C0,2.5634022 0.197521434,2.77010526 0.441176471,2.77010526 C0.684831507,2.77010526 0.882352941,2.5634022 0.882352941,2.30842105 C0.882352941,2.16683789 0.926470588,0.923368421 2.5,0.923368421 C3.99705882,0.923368421 4.11764706,1.79133474 4.11764706,2.924 C4.11764706,3.09944 3.70588235,3.37645053 3.40294118,3.57651368 C2.81470588,3.97664 2.05882353,4.47218105 2.05882353,5.38631579 C2.05882353,5.64129694 2.25634496,5.848 2.5,5.848 C2.74365504,5.848 2.94117647,5.64129694 2.94117647,5.38631579 C2.94117647,5.00773474 3.31176471,4.73380211 3.87647059,4.35522105 C4.44117647,3.97664 5,3.60729263 5,2.924 C5,2.04987789 5,0 2.5,0 Z" id="Shape" stroke="#222222" stroke-width="0.5"></path>
                    <ellipse id="Oval" cx="2.5" cy="7.2" rx="1" ry="1"></ellipse>
                </g>
            </g>
        </g>
    </g>
</svg>