<?xml version="1.0" encoding="UTF-8"?>
<svg width="32px" height="32px" viewBox="0 0 32 32" version="1.1" xmlns="http://www.w3.org/2000/svg" xmlns:xlink="http://www.w3.org/1999/xlink">
    <title>icon/32/airplan_down_action</title>
    <g id="icon/32/airplan_down_action" stroke="none" stroke-width="1" fill="none" fill-rule="evenodd">
        <rect id="Rectangle" x="0" y="0" width="32" height="32"></rect>
        <g id="Landing" transform="translate(4.500000, 5.500000)">
            <path d="M10.1465642,1.6 L15.5559464,10.2861582 L19.8167236,11.4632805 C20.2871046,11.60275 21.3646054,12.2498883 21.3646054,13.0420748 C21.3646054,13.8342614 19.6690458,14.2415122 18.8650224,14.2415122 L18.6571796,14.2415122 L10.9232399,12.6627179 L1.93130445,8.42284619 L1.64141846,4.774325 L3.57763814,7.56371429 L10.9232399,9.5386019 L9.3753581,1.65020901 L10.1465642,1.65020901 L10.1465642,1.6 Z" id="Path" fill="#000000" opacity="0.200000003"></path>
            <path d="M10.1465642,1.62342456 L15.5559464,10.3095828 L19.8167236,11.4867051 C20.2871046,11.6261745 21.3646054,12.2733128 21.3646054,13.0654994 C21.3646054,13.857686 19.6690458,14.2649368 18.8650224,14.2649368 L18.6571796,14.2649368 L10.9232399,12.6861425 L1.93130445,8.44627075 L1.64141846,4.79774957 L3.57763814,7.58713885 L10.9232399,9.56202646 L9.3753581,1.67363357 L10.1465642,1.67363357 L10.1465642,1.62342456 Z M10.1465642,0 L9.3753581,0 C8.88374031,0.000235868638 8.418128,0.225290774 8.10664395,0.613236242 C7.7951599,1.00118171 7.67062634,1.51113849 7.76731124,2.00278151 L8.80105565,7.26356969 L4.56762617,6.14781398 L2.97598796,3.8772511 C2.54625047,3.26380073 1.76741937,3.01916068 1.07378278,3.27974598 C0.380146192,3.54033128 -0.0570326503,4.24180179 0.00602386458,4.99300682 L0.295909862,8.641528 C0.343728532,9.24297084 0.705264829,9.77159285 1.24214152,10.0250651 L10.234077,14.2649368 C10.3510748,14.3204002 10.4740776,14.3615958 10.6005367,14.3876699 L18.3344763,15.9664643 L18.4001109,15.9664643 C18.5521753,15.9897586 18.7057862,16.00095 18.8595528,15.9999369 C20.1558355,15.9999369 23,15.2746957 23,13.126866 C23,11.3862871 21.320849,10.2482162 20.2652264,9.9413834 L16.5951603,8.9260457 L11.5303597,0.792186556 C11.22935,0.309461037 10.7074518,0.0170001115 10.1465642,0.0167363357 L10.1465642,0 Z" id="Shape" fill="#222222"></path>
        </g>
        <line x1="6" y1="25.5" x2="26" y2="25.5" id="Path-2" stroke="#222222" stroke-width="1.5" opacity="0.300000012" stroke-linecap="square" stroke-linejoin="round"></line>
    </g>
</svg>