<?xml version="1.0" encoding="UTF-8"?>
<svg width="32px" height="32px" viewBox="0 0 32 32" version="1.1" xmlns="http://www.w3.org/2000/svg" xmlns:xlink="http://www.w3.org/1999/xlink">
    <title>icon/32/airplan_up_action</title>
    <g id="icon/32/airplan_up_action" stroke="none" stroke-width="1" fill="none" fill-rule="evenodd">
        <rect id="Rectangle" x="0" y="0" width="32" height="32"></rect>
        <g id="Take_off-2" transform="translate(4.000000, 7.500000)" fill="#222222">
            <path d="M21.1843473,1.64559525 C21.5277612,1.62469411 21.8659925,1.73378463 22.125986,1.94930407 C22.6932382,2.49164125 21.5587338,4.27050719 20.9914816,4.66098996 L14.1844549,8.99968738 L4.54116708,12.3892947 L1.70490596,10.0843617 L5.10841931,10.6266989 L11.915446,6.83033867 L5.10841931,2.49164125 L5.67567153,1.94930407 L15.8862116,4.11865278 L19.8569771,1.94930407 C20.2700458,1.75426519 20.723679,1.65047169 21.1843473,1.64559525 L21.1843473,1.64559525 Z" id="Path" opacity="0.200000003"></path>
            <path d="M21.1843473,1.64559525 C21.5277612,1.62469411 21.8659925,1.73378463 22.125986,1.94930407 C22.6932382,2.49164125 21.5587338,4.27050719 20.9914816,4.66098996 L14.1844549,8.99968738 L4.54116708,12.3892947 L1.70490596,10.0843617 L5.10841931,10.6266989 L11.915446,6.83033867 L5.10841931,2.49164125 L5.67567153,1.94930407 L15.8862116,4.11865278 L19.8569771,1.94930407 C20.2700458,1.75426519 20.723679,1.65047169 21.1843473,1.64559525 L21.1843473,1.64559525 Z M21.1843473,0.0185837159 L21.1843473,0.0185837159 C20.4362417,0.0230175847 19.6997394,0.19580457 19.0344614,0.522957291 L15.6309481,2.39944393 L6.06707556,0.360256138 C5.49920972,0.240381544 4.90663615,0.406050333 4.4957869,0.799549252 L3.92853468,1.34188643 C3.56764862,1.68678917 3.38768757,2.16831841 3.4382439,2.65377775 C3.48880023,3.13923709 3.76453776,3.57738661 4.1894707,3.84748419 L8.72748849,6.73814135 L4.80777563,8.90749006 L1.98853207,8.4573502 C1.23180406,8.33370156 0.482181064,8.70977147 0.158621211,9.37537754 C-0.164938643,10.0409836 0.0176896535,10.831298 0.604436647,11.3046204 L3.44069777,13.6095534 C3.91107913,13.9940925 4.56273548,14.1041619 5.14245444,13.8969921 L14.7857422,10.5073847 C14.9116,10.463197 15.0315548,10.4049437 15.1431111,10.3338368 L21.9501378,5.99513942 L22.0068631,5.95717581 C23.0702166,5.09285149 23.772898,3.89166403 23.9865733,2.57299182 C24.0606155,1.91510785 23.8258715,1.25968247 23.3455783,0.783279137 C22.7704154,0.253415712 21.9937543,-0.0287134428 21.1956924,0.0023136006 L21.1843473,0.0185837159 Z" id="Shape"></path>
        </g>
        <line x1="6" y1="25.5" x2="26" y2="25.5" id="Path-2" stroke="#222222" stroke-width="1.5" opacity="0.300000012" stroke-linecap="square" stroke-linejoin="round"></line>
    </g>
</svg>