<?xml version="1.0" encoding="UTF-8"?>
<svg width="32px" height="32px" viewBox="0 0 32 32" version="1.1" xmlns="http://www.w3.org/2000/svg" xmlns:xlink="http://www.w3.org/1999/xlink">
    <title>icon/32/bell_none</title>
    <defs>
        <filter color-interpolation-filters="auto" id="filter-1">
            <feColorMatrix in="SourceGraphic" type="matrix" values="0 0 0 0 0.133333 0 0 0 0 0.133333 0 0 0 0 0.133333 0 0 0 1.000000 0"></feColorMatrix>
        </filter>
    </defs>
    <g id="icon/32/bell_none" stroke="none" stroke-width="1" fill="none" fill-rule="evenodd">
        <rect id="Rectangle-Copy" x="0" y="0" width="32" height="32"></rect>
        <g filter="url(#filter-1)" id="Notification">
            <g transform="translate(6.900131, 5.400000)">
                <path d="M9.11564946,0 C10.4969403,0 11.6481933,1.04291328 11.8200995,2.40535289 L11.8364328,2.57726971 L11.8439331,2.79596671 L12.041899,2.90174606 C12.601961,3.21556096 13.1158919,3.60613051 13.5688008,4.06144847 L13.7901012,4.29444757 L14.0008175,4.53790457 C15.1487004,5.8850703 15.7968857,7.59503553 15.8342458,9.37672198 C15.8342458,11.5287742 16.1081949,13.2801267 16.627123,14.6153454 C16.9118907,15.3480619 17.2358413,15.8805108 17.5155541,16.1464068 C18.0869753,16.5197791 18.3373072,17.2361416 18.1257011,17.8863866 C17.9486228,18.4770147 17.4540736,18.9073777 16.8584736,19.0039104 L16.7193321,19.0201822 L16.5735654,19.0236185 L13.8049382,18.9704478 L12.1838694,18.97 L12.1922487,18.9848671 C12.3330891,19.2921918 12.2824547,19.6624387 12.0478249,19.9248102 C11.2640912,20.7400507 10.1880363,21.2 9.06417004,21.2 C7.94024059,21.2 6.86420479,20.7400049 6.07958625,19.9238354 C5.83109348,19.6607396 5.77840337,19.2759221 5.93996563,19.0132357 L5.95386944,18.994 L1.61734305,18.9951521 C1.0003094,19.0098677 0.440793609,18.6622891 0.168068081,18.1207576 L0.110326729,17.9924225 L0.063393422,17.8576612 C-0.102964667,17.2988272 0.0653603374,16.6973629 0.483077236,16.3114793 L0.592652766,16.2196491 L0.697033201,16.1510246 L0.751954086,16.0959144 C1.08605258,15.7417058 1.41381793,15.158768 1.69077774,14.3776551 C2.15402113,13.0711646 2.39705356,11.4001239 2.39708656,9.37353568 C2.43441429,7.59499167 3.08262673,5.88503712 4.22897672,4.53969821 C4.78579539,3.86549007 5.45424562,3.31304744 6.17511269,2.93461666 L6.38586944,2.83 L6.38904783,2.75936406 C6.38904783,1.23575668 7.6094286,0 9.11564946,0 Z M8.74261478,18.9516131 L7.56186944,18.951 L7.63283615,19.0073573 C8.05525034,19.3201334 8.568005,19.4880742 9.09591052,19.4823394 C9.54678477,19.4793365 9.9850001,19.349343 10.3616333,19.1124413 L10.5308694,18.994 L8.74261478,18.9516131 Z M3.05986944,15.656 L2.98960096,15.834617 C2.78441479,16.3124176 2.50812477,16.7336367 2.17362577,17.0700277 L2.00158523,17.2310235 L1.94786944,17.284 L10.2302521,17.3349254 L16.2918694,17.334 L16.1402091,17.1773235 C15.8405293,16.8499544 15.5876781,16.481379 15.3887288,16.081563 L15.275884,15.8380043 L15.2168694,15.69 L3.05986944,15.656 Z M9.1296893,3.8406875 C6.49597631,3.8406875 4.13437858,6.51511437 4.13435795,9.37422165 C4.15592847,10.6840663 4.03686776,11.9547093 3.77378556,13.1478571 L3.66837211,13.5915802 L3.61610222,13.7792057 L3.57186944,13.965 L12.5786398,14.0167164 L14.6428694,14.016 L14.5538384,13.631924 C14.2839895,12.409661 14.1400115,11.1627197 14.1240143,9.91261303 L14.1250001,9.37672198 C14.1250001,6.65832195 11.9937694,4.10861086 9.52246089,3.86043575 L9.3266837,3.84566343 L9.1296893,3.8406875 Z M9.12886944,1.708 L9.00104199,1.72828042 C8.75524208,1.78086505 8.52247011,1.91382658 8.33817864,2.09372248 L8.25386944,2.184 L8.50309443,2.15042941 C8.9200547,2.10398022 9.32465988,2.11224257 9.70175744,2.17760194 L9.92459385,2.22368828 L9.97786944,2.232 L9.96208355,2.20604557 C9.81847921,1.99392836 9.60940599,1.83612799 9.37097268,1.75841365 L9.24947653,1.72634962 L9.12886944,1.708 Z" id="Combined-Shape" fill="#222222"></path>
            </g>
        </g>
    </g>
</svg>