<?xml version="1.0" encoding="UTF-8"?>
<svg width="32px" height="32px" viewBox="0 0 32 32" version="1.1" xmlns="http://www.w3.org/2000/svg" xmlns:xlink="http://www.w3.org/1999/xlink">
    <title>icon/32/favorite_none</title>
    <g id="icon/32/favorite_none" stroke="none" stroke-width="1" fill="none" fill-rule="evenodd">
        <rect id="Rectangle" x="0" y="0" width="32" height="32"></rect>
        <g id="Star" transform="translate(5.849992, 6.350000)" fill="#222222">
            <path d="M9.92206179,0 C10.4729932,0.000459376701 10.9783642,0.286263711 11.2539546,0.743951905 L11.3232802,0.872952297 L13.7030083,5.88199995 L18.7653732,5.88220151 C19.2862894,5.88599963 19.7632805,6.14444191 20.0437864,6.55840643 L20.1218911,6.68716233 L20.1823488,6.81287795 C20.4009323,7.32755923 20.3093189,7.91319749 19.9541674,8.33970028 L19.8508089,8.45190084 L16.2100083,11.9899999 L17.0278947,17.5803839 C17.0998754,18.0740179 16.9166793,18.5629369 16.5522604,18.8945334 L16.4375721,18.9891401 L16.312454,19.0733919 C15.8366164,19.3612996 15.2422352,19.3740649 14.7574087,19.1163472 L14.6280709,19.0393579 L9.91600831,15.9259999 L5.19720814,19.039344 C4.76240089,19.3267523 4.21471218,19.3757157 3.74134298,19.1858194 L3.601749,19.1216844 L3.4677374,19.0432152 C2.98300913,18.725967 2.72603825,18.1722329 2.79411126,17.6140718 L2.81795756,17.4745735 L4.04200831,11.9449999 L0.453730331,8.45636061 C0.0845445986,8.09696945 -0.0691362103,7.58607264 0.0289189919,7.09930753 L0.065923864,6.95417759 L0.118250283,6.81154937 C0.339430641,6.29219575 0.836208259,5.94022974 1.40216842,5.88873451 L1.54498031,5.88219752 L6.14000831,5.88199995 L8.52064651,0.872840317 C8.7317745,0.429295351 9.14668157,0.119200899 9.62692949,0.0278667641 L9.77282566,0.00711464311 L9.92206179,0 Z M9.92200831,1.85599995 L7.26512494,7.45395383 L7.12961792,7.53962773 L1.91300831,7.53899995 L5.83802237,11.3543712 L5.87994289,11.4942035 L4.56300831,17.4669999 L9.83914081,13.9747784 L10.0047326,13.9747784 L15.3090083,17.4859999 L14.4273948,11.4837242 L14.4712375,11.3543712 L18.3950083,7.53899995 L12.7142555,7.53962773 L12.5787485,7.45395383 L9.92200831,1.85599995 Z" id="Combined-Shape"></path>
        </g>
    </g>
</svg>