<?xml version="1.0" encoding="UTF-8"?>
<svg width="32px" height="32px" viewBox="0 0 32 32" version="1.1" xmlns="http://www.w3.org/2000/svg" xmlns:xlink="http://www.w3.org/1999/xlink">
    <title>icon/32/home</title>
    <g id="icon/32/home" stroke="none" stroke-width="1" fill="none" fill-rule="evenodd">
        <rect id="Rectangle" x="0" y="0" width="32" height="32"></rect>
        <g id="Home" transform="translate(6.500000, 7.000000)" fill="#222222" stroke="#222222" stroke-width="0.3">
            <path d="M10.3433041,0.312509088 C9.85676049,-0.104169696 9.14323951,-0.104169696 8.65669588,0.312509088 L0.458388797,7.33832474 C0.0512667084,7.68872978 -0.102769617,8.25473162 0.0698148969,8.76612784 C0.242399411,9.27752407 0.706609116,9.63061682 1.24083592,9.65684391 L2.19083592,9.66123504 L2.19083592,16.6826596 C2.19083592,17.4102066 2.77469177,18 3.49491446,18 L15.5050855,18 C16.2253082,18 16.8091641,17.4102066 16.8091641,16.6826596 L16.8091641,9.66123504 L17.7591641,9.66123504 C18.2933909,9.63500796 18.7576006,9.2819152 18.9301851,8.77051898 C19.1027696,8.25912276 18.9487333,7.69312091 18.5416112,7.34271588 L10.3433041,0.312509088 Z M9.06530715,16.6870507 L8.19592146,16.6870507 L8.19592146,12.7350294 L10.8040785,12.7350294 L10.8040785,16.6870507 L9.06530715,16.6870507 Z M15.5050855,8.34389461 L15.5050855,16.6870507 L12.1081571,16.6870507 L12.1081571,12.7350294 C12.1081571,12.0074824 11.5243012,11.417689 10.8040785,11.417689 L8.19592146,11.417689 C7.47569877,11.417689 6.89184292,12.0074824 6.89184292,12.7350294 L6.89184292,16.6870507 L3.49491446,16.6870507 L3.49491446,8.34389461 L1.30169292,8.34389461 L9.5,1.31807895 L17.6983071,8.34389461 L15.5050855,8.34389461 Z" id="Shape"></path>
        </g>
    </g>
</svg>