<?xml version="1.0" encoding="UTF-8"?>
<svg width="32px" height="32px" viewBox="0 0 32 32" version="1.1" xmlns="http://www.w3.org/2000/svg" xmlns:xlink="http://www.w3.org/1999/xlink">
    <title>icon/32/logout</title>
    <g id="icon/32/logout" stroke="none" stroke-width="1" fill="none" fill-rule="evenodd">
        <rect id="Rectangle" x="0" y="0" width="32" height="32"></rect>
        <g id="logout" transform="translate(8.500000, 7.000000)" fill="#222222" fill-rule="nonzero">
            <path d="M11.852016,17.15625 C11.852016,17.6222403 11.4663969,18 10.9907116,18 L2.87101489,18 C1.28613503,17.9982563 0.0017799878,16.740078 0,15.1875 L0,2.8125 C0.0017799878,1.25992198 1.28613503,0.00174370941 2.87101489,0 L10.9907116,0 C11.4663969,0 11.852016,0.377759742 11.852016,0.84375 C11.852016,1.30974026 11.4663969,1.6875 10.9907116,1.6875 L2.87101489,1.6875 C2.23705476,1.68817815 1.72330119,2.19146077 1.72260894,2.8125 L1.72260894,15.1875 C1.72328146,15.8085472 2.23704657,16.3118412 2.87101489,16.3125 L10.9907116,16.3125 C11.4663969,16.3125 11.852016,16.6902597 11.852016,17.15625 L11.852016,17.15625 Z M15.747732,8.40339844 L11.6547055,4.39375781 C11.4379482,4.17663721 11.1188038,4.09038037 10.8190632,4.16790436 C10.5193226,4.24542834 10.2852358,4.47477122 10.2061342,4.76841186 C10.1270327,5.06205249 10.2151217,5.37468217 10.4367851,5.58699609 L13.0593496,8.15625 L6.27887368,8.15625 C5.80318836,8.15625 5.41756922,8.53400974 5.41756922,9 C5.41756922,9.46599026 5.80318836,9.84375 6.27887368,9.84375 L13.0593137,9.84375 L10.4366416,12.4129687 C10.2180681,12.625926 10.1323426,12.93708 10.2118594,13.22885 C10.2913762,13.5206201 10.5240091,13.7485117 10.8218496,13.8264079 C11.11969,13.904304 11.4373176,13.8203257 11.6547055,13.606207 L15.747732,9.59663672 C16.0840893,9.26713235 16.0840893,8.7329028 15.747732,8.40339844 Z" id="Shape"></path>
        </g>
    </g>
</svg>