<?xml version="1.0" encoding="UTF-8"?>
<svg width="32px" height="32px" viewBox="0 0 32 32" version="1.1" xmlns="http://www.w3.org/2000/svg" xmlns:xlink="http://www.w3.org/1999/xlink">
    <title>icon/32/manual</title>
    <g id="icon/32/manual" stroke="none" stroke-width="1" fill="none" fill-rule="evenodd">
        <rect id="Rectangle" x="0" y="0" width="32" height="32"></rect>
        <g id="Document" transform="translate(7.000000, 6.000000)" fill="#222222">
            <path d="M16.4853807,0 C17.2730943,0 17.9197226,0.604297561 17.9930708,1.37617811 L18.0000025,1.52276295 L18.0000025,18.477237 C18.0000025,19.2683595 17.3997078,19.9191937 16.6313181,19.993025 L16.4853807,20 L1.51462652,20 C0.726912979,20 0.0802846603,19.3957024 0.00693639289,18.6238219 L2.45599097e-06,18.477237 L2.45599097e-06,5.76157686 C-0.000860051596,5.27904244 0.22550946,4.82794277 0.588840301,4.55389098 L0.714899389,4.46929746 L4.4419358,0.721514194 C4.68944401,0.319349269 5.10692701,0.058108878 5.56919085,0.00857418175 L5.72515114,0 L16.4853807,0 Z M16.355556,1.65054945 L5.83555888,1.65054945 L5.83626222,5.78021978 L5.72515114,5.89010989 L1.65002644,5.85723316 L1.62556004,5.87032967 L1.62556004,18.367033 L16.3733338,18.367033 L16.355556,1.65054945 Z M12.2748561,14.1287284 C12.7242336,14.1287284 13.0877213,14.4946413 13.0877213,14.9450549 C13.0877213,15.3579341 12.7822907,15.6998092 12.3852505,15.7539211 L12.2748561,15.7613815 L4.32164293,15.7613815 C3.87226538,15.7613815 3.50877775,15.3954685 3.50877775,14.9450549 C3.50877775,14.5321758 3.81420833,14.1903007 4.21124856,14.1361887 L4.32164293,14.1287284 L12.2748561,14.1287284 Z M13.6783643,10.8320251 C14.1277419,10.8320251 14.4912295,11.1979381 14.4912295,11.6483516 C14.4912295,12.0612308 14.1857989,12.4031059 13.7887587,12.4572178 L13.6783643,12.4646782 L4.32164293,12.4646782 C3.87226538,12.4646782 3.50877775,12.0987652 3.50877775,11.6483516 C3.50877775,11.2354725 3.81420833,10.8935974 4.21124856,10.8394854 L4.32164293,10.8320251 L13.6783643,10.8320251 Z M13.2105282,3.2967033 C13.9982418,3.2967033 14.6448701,3.90100086 14.7182184,4.6728814 L14.7251475,4.81946625 L14.7251475,7.64521193 C14.7251475,8.43633443 14.1248553,9.08716861 13.3564657,9.16099989 L13.2105282,9.16797488 L10.4035118,9.16797488 C9.61579828,9.16797488 8.96916996,8.56367732 8.89582169,7.79179678 L8.88889254,7.64521193 L8.88889254,4.81946625 C8.88889254,4.02834375 9.48918476,3.37750957 10.2575744,3.30367829 L10.4035118,3.2967033 L13.2105282,3.2967033 Z M13.0988902,4.92857143 L10.5144465,4.92857143 L10.5144465,7.53516484 L13.0988902,7.53516484 L13.0988902,4.92857143 Z M4.21000377,3.25934066 L3.23889293,4.23846154 L4.21000377,4.23846154 L4.21000377,3.25934066 Z" id="Shape"></path>
        </g>
    </g>
</svg>