<?xml version="1.0" encoding="UTF-8"?>
<svg width="32px" height="32px" viewBox="0 0 32 32" version="1.1" xmlns="http://www.w3.org/2000/svg" xmlns:xlink="http://www.w3.org/1999/xlink">
    <title>icon/32/more</title>
    <g id="icon/32/more" stroke="none" stroke-width="1" fill="none" fill-rule="evenodd">
        <rect id="Rectangle" x="0" y="0" width="32" height="32"></rect>
        <g id="View-2" transform="translate(6.850000, 6.850000)" fill="#222222">
            <path d="M6.61153846,10.1538462 C7.41199732,10.1538462 8.06931737,10.7666963 8.13988237,11.5487803 L8.14615385,11.6884615 L8.14615385,16.7653846 C8.14615385,17.5658435 7.53330374,18.2231635 6.75121974,18.2937285 L6.61153846,18.3 L1.53461538,18.3 C0.734156526,18.3 0.0768364801,17.6871499 0.00627147147,16.9050659 L0,16.7653846 L0,11.6884615 C0,10.8880027 0.612850109,10.2306826 1.3949341,10.1601176 L1.53461538,10.1538462 L6.61153846,10.1538462 Z M16.7653846,10.1538462 C17.5658435,10.1538462 18.2231635,10.7666963 18.2937285,11.5487803 L18.3,11.6884615 L18.3,16.7653846 C18.3,17.5658435 17.6871499,18.2231635 16.9050659,18.2937285 L16.7653846,18.3 L11.6884615,18.3 C10.8880027,18.3 10.2306826,17.6871499 10.1601176,16.9050659 L10.1538462,16.7653846 L10.1538462,11.6884615 C10.1538462,10.8880027 10.7666963,10.2306826 11.5487803,10.1601176 L11.6884615,10.1538462 L16.7653846,10.1538462 Z M6.461,11.838 L1.684,11.838 L1.684,16.615 L6.461,16.615 L6.461,11.838 Z M16.615,11.838 L11.838,11.838 L11.838,16.615 L16.615,16.615 L16.615,11.838 Z M6.61153846,0 C7.41199732,0 8.06931737,0.612850109 8.13988237,1.3949341 L8.14615385,1.53461538 L8.14615385,6.61153846 C8.14615385,7.41199732 7.53330374,8.06931737 6.75121974,8.13988237 L6.61153846,8.14615385 L1.53461538,8.14615385 C0.734156526,8.14615385 0.0768364801,7.53330374 0.00627147147,6.75121974 L0,6.61153846 L0,1.53461538 C0,0.734156526 0.612850109,0.0768364801 1.3949341,0.00627147147 L1.53461538,0 L6.61153846,0 Z M16.7653846,0 C17.5658435,0 18.2231635,0.612850109 18.2937285,1.3949341 L18.3,1.53461538 L18.3,6.61153846 C18.3,7.41199732 17.6871499,8.06931737 16.9050659,8.13988237 L16.7653846,8.14615385 L11.6884615,8.14615385 C10.8880027,8.14615385 10.2306826,7.53330374 10.1601176,6.75121974 L10.1538462,6.61153846 L10.1538462,1.53461538 C10.1538462,0.734156526 10.7666963,0.0768364801 11.5487803,0.00627147147 L11.6884615,0 L16.7653846,0 Z M6.461,1.684 L1.684,1.684 L1.684,6.461 L6.461,6.461 L6.461,1.684 Z M16.615,1.684 L11.838,1.684 L11.838,6.461 L16.615,6.461 L16.615,1.684 Z" id="Shape"></path>
        </g>
    </g>
</svg>