<?xml version="1.0" encoding="UTF-8"?>
<svg width="32px" height="32px" viewBox="0 0 32 32" version="1.1" xmlns="http://www.w3.org/2000/svg" xmlns:xlink="http://www.w3.org/1999/xlink">
    <title>icon/32/notice</title>
    <defs>
        <filter color-interpolation-filters="auto" id="filter-1">
            <feColorMatrix in="SourceGraphic" type="matrix" values="0 0 0 0 0.133333 0 0 0 0 0.133333 0 0 0 0 0.133333 0 0 0 1.000000 0"></feColorMatrix>
        </filter>
    </defs>
    <g id="icon/32/notice" stroke="none" stroke-width="1" fill="none" fill-rule="evenodd">
        <rect id="Rectangle" x="0" y="0" width="32" height="32"></rect>
        <g filter="url(#filter-1)" id="Share">
            <g transform="translate(4.950000, 7.950000)">
                <path d="M4.43250157,11.2138915 C4.22021026,11.6777065 3.80226832,12.0068425 3.3125852,12.1033477 L3.16366194,12.1252224 L3.02556258,12.1323028 L1.56244371,12.1323028 C0.799854786,12.1323028 0.158332678,11.5736725 0.0251485463,10.8258189 L0.006228156,10.6834691 L0,10.5409978 L0,5.56894622 C0,4.79277566 0.548023472,4.13908608 1.28263695,4.00328974 L1.42247534,3.98399352 L1.56244372,3.9776413 L3.02584613,3.9776417 C3.59240899,3.97926501 4.10672349,4.29218664 4.33977307,4.76649547 L4.39204325,4.88834816 L4.365,4.972 L4.367,4.977 L12.6803636,1.63605339 L12.6803636,1.59130493 C12.6803636,0.815134367 13.228387,0.161444784 13.9630005,0.0256484393 L14.1028389,0.0063522223 L14.2428073,0 L16.1936313,0 C16.9527315,0 17.5924195,0.553635357 17.7292966,1.2975789 L17.7489751,1.43920979 L17.7560761,1.58136082 L17.7560761,14.508695 C17.7560761,15.2848656 17.2080527,15.9385552 16.4734392,16.0743515 L16.3336008,16.0936477 L16.1936324,16.1 L14.2428175,16.1 C13.6011669,16.1 13.0281843,15.7007696 12.8107631,15.1236226 L12.7697196,14.9973057 L12.7670417,14.8973879 L11.1994721,14.137781 L11.122,14.047 L11.118,14.046 L11.0822363,14.1381393 C11.0352254,14.2351357 10.9701248,14.3220032 10.8906828,14.3936276 C10.2249571,14.9991221 9.36665567,15.3385526 8.47368839,15.3492192 C7.97750115,15.3514581 7.48769803,15.2354106 7.04327008,15.0103048 C5.84092397,14.3989785 5.09232452,13.1359489 5.12091799,11.7684721 C5.12147306,11.6792517 5.1354162,11.600648 5.16744377,11.5380318 L5.193,11.498 L4.47625066,11.1284764 L4.486,11.078 L4.43250157,11.2138915 Z M14.342,1.642 L14.2441134,14.4189668 L16.094,14.517 L16.1424197,1.6890517 L14.342,1.642 Z M6.828,12.247 L6.86214899,12.3913836 C6.99988938,12.8785912 7.33308425,13.2882153 7.78198301,13.5126668 C8.2145158,13.7053837 8.71439234,13.7209124 9.173031,13.5742824 L9.3428754,13.5117243 L9.47237295,13.4370749 L9.53,13.457 L9.532,13.456 L6.828,12.247 Z M12.679,3.34 L4.58800369,6.61855969 L4.53001249,9.41616324 L10.3420887,12.1128018 L12.001,12.921 L12.679,13.229 L12.679,3.34 Z M19.4605613,10.0509048 L19.5809761,10.1029825 L19.6911699,10.1679893 L21.1538303,11.1620886 C21.6260901,11.4817767 21.7545684,12.129298 21.4415514,12.6098907 C21.1741338,13.0204719 20.6663159,13.1805922 20.2226438,13.0123375 L20.1132384,12.9633876 L20.0116893,12.9028271 L18.549029,11.9087278 C18.1499169,11.6385559 17.9926898,11.1296374 18.1519004,10.6821896 L18.1983387,10.571782 L18.2629416,10.4585678 L18.3333896,10.3630312 C18.6107086,10.0287592 19.0623564,9.90876172 19.4605613,10.0509048 Z M1.66,5.62 L1.56419994,10.4413393 L2.856,10.536 L2.926,10.538 L2.97421824,5.6661812 L1.66,5.62 Z M21.0706953,6.76056171 C21.6395427,6.76056171 22.1,7.22915195 22.1,7.80636945 C22.1,8.29725776 21.7652418,8.71501145 21.305386,8.82455494 L21.1879372,8.84538373 L21.0706953,8.8521772 L19.6075765,8.8521772 C19.0387291,8.8521772 18.5782718,8.38358696 18.5782718,7.80636945 C18.5782718,7.31548115 18.9130301,6.89772746 19.3728858,6.78818397 L19.4903346,6.76735518 L19.6075765,6.76056171 L21.0706953,6.76056171 Z M21.1003987,2.60543895 C21.43364,2.77851182 21.6480142,3.12161848 21.6606221,3.50138262 C21.670342,3.7941585 21.5587414,4.07614044 21.3577123,4.279074 L21.2661747,4.36100683 L21.1700491,4.42798509 L19.6551775,5.42433138 C19.4911345,5.5294395 19.3004199,5.58578425 19.1121172,5.58545922 C18.6506719,5.59620256 18.2408039,5.28902688 18.1112463,4.8373427 C18.0068263,4.47329728 18.1052749,4.08464114 18.3610215,3.81647141 L18.4520337,3.731743 L18.5499358,3.66042042 L20.0539456,2.6712562 C20.3647862,2.45694986 20.7658799,2.4317026 21.1003987,2.60543895 Z" id="Shape" fill="#FFFFFF"></path>
            </g>
        </g>
    </g>
</svg>