<?xml version="1.0" encoding="UTF-8"?>
<svg width="32px" height="32px" viewBox="0 0 32 32" version="1.1" xmlns="http://www.w3.org/2000/svg" xmlns:xlink="http://www.w3.org/1999/xlink">
    <title>icon/32/setting</title>
    <g id="icon/32/setting" stroke="none" stroke-width="1" fill="none" fill-rule="evenodd">
        <rect id="Rectangle" x="0" y="0" width="32" height="32"></rect>
        <g id="setting" transform="translate(6.000000, 6.000000)" fill="#222222" fill-rule="nonzero">
            <path d="M10.6982395,0 C11.8135935,0.001139576 12.7266765,0.865778374 12.8050093,1.96161258 L12.8104575,2.11241816 L12.8104279,2.19332631 C12.8133909,2.36389587 12.9171913,2.51648086 13.074753,2.58188016 C13.2060544,2.63637957 13.35387,2.62169155 13.4690802,2.54829689 L13.5339006,2.49729915 L13.5935353,2.43766465 C14.3775952,1.65538375 15.6226584,1.61626971 16.4529143,2.32041811 L16.5804325,2.43777614 L17.5683252,3.42501567 C18.349859,4.20954656 18.3889357,5.45413307 17.685328,6.28489725 L17.5680602,6.41250417 L17.5084386,6.4721256 C17.3912754,6.58904501 17.3563969,6.76518155 17.4223312,6.92335324 C17.4730904,7.05592715 17.5871529,7.15135791 17.7213398,7.18035216 L17.8039216,7.18954198 L17.887782,7.18954208 C19.003136,7.19068156 19.916219,8.05532035 19.9945517,9.15115456 L20,9.30196014 L20,10.6982388 C19.9988604,11.8135927 19.1342216,12.7266756 18.0383873,12.8050084 L17.8875817,12.8104566 L17.8046814,12.8104552 C17.6386335,12.8110987 17.4895534,12.9123474 17.4247706,13.0734566 C17.366873,13.203027 17.379833,13.3511138 17.453738,13.4664348 L17.5053151,13.5312853 L17.5650573,13.591028 C18.3465911,14.3755589 18.3856677,15.6201454 17.6819813,16.4509883 L17.5647003,16.5786083 L16.5770529,17.5649483 C15.792993,18.3472292 14.5479299,18.3863433 13.7176345,17.6821556 L13.5901098,17.564791 L13.5342551,17.5088441 C13.411455,17.3922217 13.231514,17.3588094 13.0750331,17.4235735 C12.9446324,17.4775435 12.8508866,17.5912637 12.8207157,17.722651 L12.8104575,17.8032667 L12.8104574,17.8877808 C12.8093179,19.0031346 11.9446793,19.9162175 10.8488448,19.9945511 L10.6980392,20 L9.3020941,20 C8.74082644,20.0003811 8.20243727,19.7775877 7.80556136,19.3807118 C7.45278255,19.027933 7.23755074,18.5633413 7.19434542,18.0703518 L7.18627451,17.8843125 L7.18627543,17.8005997 C7.18576762,17.6349197 7.08476745,17.4861232 6.92405817,17.4215595 C6.79440925,17.3637397 6.64629753,17.3767148 6.53095947,17.4505332 L6.46609937,17.5020459 L6.4065453,17.5615999 C5.6225378,18.3447379 4.37664231,18.3838948 3.54641942,17.679044 L3.41891389,17.5615689 L2.43167476,16.574983 C1.65014098,15.7904521 1.61106429,14.5458655 2.31467197,13.7151014 L2.43193985,13.5874945 L2.49156144,13.527873 C2.60872462,13.4109536 2.64360315,13.2348171 2.5776688,13.0766454 C2.52690958,12.9440715 2.41284715,12.8486407 2.27866015,12.8196465 L2.19607843,12.8104566 L2.11221798,12.8104565 C0.996863966,12.8093171 0.0837809976,11.9446783 0.00544826559,10.8488441 L0,10.6980385 L0,9.30175982 C0.00113957608,8.18640588 0.865778434,7.27332297 1.96161271,7.19499025 L2.1124183,7.18954198 L2.19540396,7.18954314 C2.36134333,7.18897234 2.51039263,7.08791902 2.57522937,6.92719563 C2.63312704,6.7976252 2.62016701,6.6495384 2.54626203,6.53421737 L2.49468495,6.46936691 L2.43494273,6.40962419 C1.65340895,5.62509329 1.61433226,4.38050678 2.31817589,3.54950713 L2.43548301,3.42186104 L3.42621505,2.43505027 C4.21027496,1.65276937 5.45533812,1.61365533 6.28894271,2.32124714 L6.41701796,2.439178 L6.46574487,2.49115456 C6.58854504,2.60777693 6.768486,2.64118925 6.9249669,2.57642516 C7.05536765,2.52245509 7.14911337,2.4087349 7.17928428,2.27734763 L7.18954248,2.19673188 L7.18954259,2.11221784 C7.19068206,0.996863897 8.05532092,0.0837809917 9.15097988,0.00544835476 L9.30196078,0 L10.6982395,0 Z M10.6978292,1.69934619 L9.30217083,1.69934619 C9.09937255,1.69956344 8.93075381,1.84567316 8.89561509,2.03822745 L8.88888889,2.11241816 L8.88888039,2.19855766 C8.88092901,3.05245444 8.36348634,3.8189594 7.57449444,4.14560108 C6.838102,4.45046665 5.99819405,4.3170865 5.39254364,3.80980019 L5.26647008,3.69539637 L5.20841539,3.63669232 C5.06726719,3.4955542 4.84939237,3.47791194 4.68909658,3.58373146 L4.62431519,3.63664147 L3.63749457,4.62411545 C3.49649852,4.76542396 3.47887401,4.98326576 3.58503005,5.14411931 L3.63810508,5.20917819 L3.69735507,5.26908785 C4.29606973,5.87821755 4.47260196,6.78628254 4.1457047,7.57535565 C3.84060059,8.31182389 3.15213136,8.81144716 2.36593972,8.88070506 L2.19607843,8.88888829 L2.11262835,8.88888817 C1.90983007,8.88910542 1.74121132,9.03521515 1.7060726,9.22776943 L1.69934629,9.30196014 L1.69934629,10.6978284 C1.69956354,10.9006267 1.84567332,11.0692455 2.0382276,11.1043845 L2.1124183,11.1111108 L2.19761626,11.1111168 C3.05213471,11.1178189 3.81976625,11.6350126 4.1469097,12.4244581 C4.45224354,13.1612737 4.31858456,14.0018548 3.81123259,14.6068522 L3.69681832,14.732765 L3.63753778,14.7920453 C3.49642551,14.9335585 3.47878647,15.1516344 3.58445821,15.3121256 L3.63729526,15.3769909 L4.62396747,16.3630101 C4.76543581,16.5038645 4.983245,16.5214713 5.14359634,16.4160322 L5.20841044,16.3633113 L5.26852793,16.3031967 C5.87642782,15.7008737 6.78633105,15.5220077 7.57699269,15.8494057 C8.31494356,16.1549773 8.81458784,16.8458945 8.88129257,17.6331906 L8.88888889,17.8032667 L8.88888878,17.8873704 C8.88910602,18.0901687 9.03521576,18.2587874 9.22777006,18.2939261 L9.30196078,18.3006524 L10.6978292,18.3006524 C10.9006275,18.3004352 11.0692462,18.1543255 11.1043849,17.9617712 L11.1111111,17.8875805 L11.1111196,17.8014422 C11.1190641,16.9477264 11.6362873,16.1813431 12.4250335,15.8545813 C13.1611967,15.5496036 14.0009529,15.6826568 14.6067636,16.1896151 L14.7328763,16.3039487 L14.790931,16.3626527 C14.9320792,16.5037908 15.149954,16.5214331 15.3103421,16.4155213 L15.375169,16.3625659 L16.3624622,15.3765801 C16.5035745,15.2350668 16.5212135,15.016991 16.4149993,14.8559544 L16.3618949,14.7908204 L16.3026449,14.7309108 C15.7039303,14.1217811 15.527398,13.2137161 15.8542953,12.424643 C16.1593994,11.6881746 16.8478688,11.1885514 17.6340603,11.1192939 L17.8039216,11.1111108 L17.8873714,11.1111109 C18.0901699,11.1108934 18.2587887,10.9647835 18.2939274,10.7722292 L18.3006537,10.6980385 L18.3006537,9.30217019 C18.3004365,9.09937193 18.1543267,8.9307532 17.9617724,8.89561448 L17.8875817,8.88888829 L17.8023189,8.88888174 C16.9481125,8.88189961 16.1808656,8.36482007 15.8537853,7.57568395 C15.5485103,6.8391569 15.6818955,5.99888072 16.1888536,5.39381943 L16.3031817,5.26788719 L16.3625054,5.20856362 C16.5035015,5.06725511 16.521126,4.84941331 16.415451,4.68904359 L16.3626129,4.6242231 L15.3757356,3.63669232 C15.2345875,3.4955542 15.0167126,3.47791194 14.8563861,3.58376221 L14.7915896,3.63668737 L14.7309124,3.69735428 C14.1218765,4.29598152 13.2139822,4.47256243 12.424972,4.1458482 C11.6885625,3.84091492 11.1888515,3.15268529 11.1193491,2.36657764 L11.1111111,2.19673188 L11.1111112,2.11262821 C11.1108668,1.88448017 10.9259772,1.69959059 10.6978292,1.69934619 Z M10.0002237,5.22875793 C12.6339385,5.23176274 14.7682369,7.36606094 14.7712418,9.99999931 C14.7712418,12.6350832 12.6350841,14.7712408 10,14.7712408 C7.3649159,14.7712408 5.22875817,12.6350832 5.22875817,9.99999931 C5.22875817,7.43613387 7.25100829,5.34459023 9.78747019,5.23340662 L10.0002237,5.22875793 Z M10,6.92810411 C8.303439,6.92810411 6.92810458,8.30343844 6.92810458,9.99999931 C6.92810458,11.6965602 8.303439,13.0718947 9.99976513,13.0718947 C11.6956138,13.0698633 13.0698642,11.695613 13.0718954,9.99999931 C13.0718954,8.30343844 11.696561,6.92810411 10,6.92810411 Z" id="Shape"></path>
        </g>
    </g>
</svg>