<?xml version="1.0" encoding="UTF-8"?>
<svg width="32px" height="32px" viewBox="0 0 32 32" version="1.1" xmlns="http://www.w3.org/2000/svg" xmlns:xlink="http://www.w3.org/1999/xlink">
    <title>icon/32/snow</title>
    <g id="icon/32/snow" stroke="none" stroke-width="1" fill="none" fill-rule="evenodd">
        <rect id="Rectangle-Copy" x="0" y="0" width="32" height="32"></rect>
        <path d="M17.7933988,17.3406779 L18.353,17.9 L20.4342188,17.603125 C20.6092188,17.578125 20.7714062,17.6995312 20.7964062,17.8745312 C20.8215625,18.0495312 20.7001562,18.2117188 20.5251562,18.236875 L18.918,18.465 L19.364,18.911 L21.8375,19.5295312 C21.9520312,19.558125 22.0417188,19.6476562 22.0704688,19.7621875 L22.7104688,22.3221875 C22.734375,22.4178125 22.7129688,22.5192188 22.6523438,22.596875 C22.5915625,22.6745312 22.4985938,22.72 22.4,22.72 C22.3739062,22.72 22.3478125,22.7167188 22.3225,22.7104688 L19.7625,22.0704688 C19.6479688,22.041875 19.5582812,21.9523438 19.5295312,21.8378125 L18.911,19.364 L18.465,18.918 L18.2364062,20.5254688 C18.2139062,20.6829688 18.0790625,20.7998438 17.92,20.8000009 C17.8271875,20.8001562 17.73875,20.7598438 17.6779688,20.6896875 C17.6170312,20.6195312 17.5896875,20.5264062 17.6028125,20.4345312 L17.899,18.352 L17.3406779,17.7933988 C17.0476155,18.0129337 16.6990388,18.1624135 16.3197806,18.2170053 L16.319,21.626 L17.50625,22.81375 C17.5976562,22.9053125 17.6251562,23.0429688 17.575625,23.1625 C17.5260938,23.2820312 17.409375,23.36 17.28,23.36 C17.1951562,23.36 17.11375,23.32625 17.05375,23.26625 L16.319,22.532 L16.32,23.68 C16.32,23.8567188 16.1767188,24 16,24 C15.8232812,24 15.68,23.8567188 15.68,23.68 L15.679,22.532 L14.94625,23.26625 C14.820625,23.3875 14.6210938,23.3857812 14.4976562,23.2623438 C14.3742188,23.1389062 14.3725,22.939375 14.49375,22.81375 L15.679,21.627 L15.6790448,18.2171824 C15.2999746,18.162802 14.9515587,18.0135226 14.6586397,17.7941867 L14.1,18.352 L14.3971875,20.4345312 C14.4103125,20.5264062 14.3829688,20.6195312 14.3220312,20.6896875 C14.26125,20.7598438 14.1728125,20.8001562 14.08,20.8000009 C13.9209375,20.7998438 13.7860938,20.6829688 13.7635938,20.5254688 L13.534,18.918 L13.088,19.364 L12.4704688,21.8378125 C12.4417188,21.9523438 12.3520312,22.041875 12.2375,22.0704688 L9.6775,22.7104688 C9.65218752,22.7167188 9.62609376,22.72 9.6,22.72 C9.50140624,22.72 9.40843752,22.6745312 9.34765624,22.596875 C9.28703124,22.5192188 9.265625,22.4178125 9.28953124,22.3221875 L9.92953124,19.7621875 C9.95828124,19.6476562 10.0479688,19.558125 10.1625,19.5295312 L12.635,18.911 L13.081,18.465 L11.4748438,18.236875 C11.2998438,18.2117188 11.1784375,18.0495312 11.2035938,17.8745312 C11.2285938,17.6995312 11.3907812,17.578125 11.5657812,17.603125 L13.646,17.9 L14.2058133,17.3413603 C13.9864774,17.0484413 13.837198,16.7000254 13.7828176,16.3209552 L10.372,16.32 L9.18625,17.50625 C9.12625,17.56625 9.04484376,17.6 8.96,17.6 C8.830625,17.6 8.71390624,17.5220312 8.664375,17.4025 C8.61484376,17.2829688 8.64234376,17.1453125 8.73375,17.05375 L9.467,16.32 L8.32,16.32 C8.14328124,16.32 8,16.1767188 8,16 C8,15.8232812 8.14328124,15.68 8.32,15.68 L9.467,15.68 L8.73375,14.94625 C8.6125,14.820625 8.61421876,14.6210938 8.73765624,14.4976562 C8.86109376,14.3742188 9.060625,14.3725 9.18625,14.49375 L10.373,15.68 L13.7826732,15.6800527 C13.8369334,15.3005922 13.986283,14.9518183 14.2058133,14.6586397 L13.646,14.099 L11.5657812,14.396875 C11.550625,14.3989062 11.5353125,14.4 11.52,14.4 C11.3520312,14.4 11.2126562,14.2701562 11.2007812,14.1026562 C11.1889062,13.9351562 11.3085938,13.786875 11.4748438,13.763125 L13.081,13.534 L12.635,13.088 L10.1625,12.4704688 C10.0479688,12.441875 9.95828124,12.3523438 9.92953124,12.2378125 L9.28953124,9.67781248 C9.26234376,9.56875 9.29421876,9.45343752 9.37359376,9.37390624 C9.453125,9.294375 9.56843752,9.26234376 9.6775,9.28953124 L12.2375,9.92953124 C12.3520312,9.958125 12.4417188,10.0476562 12.4704688,10.1621875 L13.088,12.635 L13.534,13.081 L13.7635938,11.4745312 C13.7885938,11.2995312 13.9507812,11.178125 14.1257812,11.203125 C14.3007812,11.2282812 14.4221875,11.3904688 14.3971875,11.5654688 L14.1,13.647 L14.6586397,14.2058133 C14.9515587,13.9864774 15.2999746,13.837198 15.6790448,13.7828176 L15.679,10.372 L14.49375,9.18625 C14.3725,9.060625 14.3742188,8.86109376 14.4976562,8.73765624 C14.6210938,8.61421876 14.820625,8.6125 14.94625,8.73375 L15.679,9.467 L15.68,8.32 C15.68,8.14328124 15.8232812,8 16,8 C16.1767188,8 16.32,8.14328124 16.32,8.32 L16.319,9.467 L17.05375,8.73375 C17.179375,8.6125 17.3789062,8.61421876 17.5023438,8.73765624 C17.6257812,8.86109376 17.6275,9.060625 17.50625,9.18625 L16.319,10.373 L16.3199473,13.7826732 C16.6994078,13.8369334 17.0481817,13.986283 17.3413603,14.2058133 L17.899,13.647 L17.6028125,11.5654688 C17.5778125,11.3904688 17.6992188,11.2282812 17.8742188,11.203125 C18.0492188,11.178125 18.2114062,11.2995312 18.2364062,11.4745312 L18.465,13.081 L18.911,12.635 L19.5295312,10.1621875 C19.5582812,10.0476562 19.6479688,9.958125 19.7625,9.92953124 L22.3225,9.28953124 C22.4315625,9.26234376 22.546875,9.294375 22.6264062,9.37390624 C22.7057812,9.45343752 22.7376562,9.56875 22.7104688,9.67781248 L22.0704688,12.2378125 C22.0417188,12.3523438 21.9520312,12.441875 21.8375,12.4704688 L19.364,13.088 L18.918,13.534 L20.5251562,13.763125 C20.6914062,13.786875 20.8110938,13.9351562 20.7992188,14.1026562 C20.7873438,14.2701562 20.6479688,14.4 20.48,14.4 C20.4646875,14.4 20.449375,14.3989062 20.4342188,14.396875 L18.353,14.099 L17.7941867,14.6586397 C18.013717,14.9518183 18.1630666,15.3005922 18.2173268,15.6800527 L21.626,15.68 L22.81375,14.49375 C22.939375,14.3725 23.1389062,14.3742188 23.2623438,14.4976562 C23.3857812,14.6210938 23.3875,14.820625 23.26625,14.94625 L22.532,15.68 L23.68,15.68 C23.8567188,15.68 24,15.8232812 24,16 C24,16.1767188 23.8567188,16.32 23.68,16.32 L22.532,16.32 L23.26625,17.05375 C23.3576562,17.1453125 23.3851562,17.2829688 23.335625,17.4025 C23.2860938,17.5220312 23.169375,17.6 23.04,17.6 C22.9551562,17.6 22.87375,17.56625 22.81375,17.50625 L21.627,16.32 L18.2168601,16.320788 C18.1621487,16.6996561 18.0127393,17.047875 17.7933988,17.3406779 Z M19.6396875,19.64 L20.10375,21.4959375 L21.9596875,21.96 L21.495625,20.1040625 L19.6396875,19.64 Z M12.3596875,19.64 L10.50375,20.1040625 L10.0396875,21.96 L11.895625,21.4959375 L12.3596875,19.64 Z M21.9596875,10.04 L20.10375,10.5040625 L19.6396875,12.36 L21.495625,11.8959375 L21.9596875,10.04 Z M10.0396875,10.04 L10.50375,11.8959375 L12.3596875,12.36 L11.895625,10.5040625 L10.0396875,10.04 Z" id="Combined-Shape" stroke="#222222" stroke-width="0.5" fill="#222222" fill-rule="nonzero" transform="translate(16.000000, 16.000000) rotate(-630.000000) translate(-16.000000, -16.000000) "></path>
    </g>
</svg>