<?xml version="1.0" encoding="UTF-8"?>
<svg width="32px" height="32px" viewBox="0 0 32 32" version="1.1" xmlns="http://www.w3.org/2000/svg" xmlns:xlink="http://www.w3.org/1999/xlink">
    <title>icon/32/up_icon</title>
    <g id="icon/32/up_icon" stroke="none" stroke-width="1" fill="none" fill-rule="evenodd">
        <rect id="Rectangle" x="0" y="0" width="32" height="32"></rect>
        <path d="M23.7028302,15.2900762 L17.7032838,9.30333512 C17.4479454,9.04386644 17.0719957,8.94078571 16.7189036,9.03343029 C16.3658114,9.12607487 16.0900589,9.40014971 15.9968779,9.7510632 C15.9036968,10.1019767 16.0074651,10.4755829 16.2685829,10.7293074 L20.5359362,14.994723 L9.0146101,14.994723 C8.45425642,14.994723 8,15.4461625 8,16.0030414 C8,16.5599202 8.45425642,17.0113598 9.0146101,17.0113598 L20.5358939,17.0113598 L16.2684138,21.2767333 C16.0109359,21.5312266 15.9099519,21.9030693 16.0036221,22.2517474 C16.0972923,22.6004255 16.3713321,22.8727659 16.7221859,22.9658553 C17.0730396,23.0589446 17.4472025,22.9585868 17.7032838,22.7027056 L23.7028302,16.7160485 C24.0990566,16.3222763 24.0990566,15.6838484 23.7028302,15.2900762 Z" id="Path" fill="#FFFFFF" transform="translate(16.000000, 16.000000) rotate(-90.000000) translate(-16.000000, -16.000000) "></path>
    </g>
</svg>