<?xml version="1.0" encoding="UTF-8"?>
<svg width="32px" height="32px" viewBox="0 0 32 32" version="1.1" xmlns="http://www.w3.org/2000/svg" xmlns:xlink="http://www.w3.org/1999/xlink">
    <title>icon/32/user_add</title>
    <g id="icon/32/user_add" stroke="none" stroke-width="1" fill="none" fill-rule="evenodd">
        <rect id="Rectangle" x="0" y="0" width="32" height="32"></rect>
        <g id="Group" transform="translate(14.000000, 12.000000)" fill="#222222">
            <path d="M7,0 C10.8659932,0 14,3.13400675 14,7 C14,10.8659932 10.8659932,14 7,14 C3.13400675,14 0,10.8659932 0,7 C0,3.13400675 3.13400675,0 7,0 Z M7,8.59993386 C5.3400114,8.59993386 3.83621805,9.52977164 3.0862992,10.9796333 C4.09405727,11.9717607 5.4756849,12.5826784 7,12.5826784 C8.41165242,12.5826784 9.70093007,12.0587297 10.6839728,11.1946926 L10.9138082,10.9802829 C10.1631233,9.52993888 8.6608392,8.59993386 7,8.59993386 Z M7,1.41732161 C3.91677186,1.41732161 1.41732161,3.91677186 1.41732161,7 C1.41732161,7.98341238 1.67159711,8.90743553 2.11798807,9.70990942 C2.8815872,8.57834328 4.01583026,7.74804225 5.31954302,7.36012724 C4.71423804,6.87171103 4.32767878,6.1230885 4.32767878,5.28418022 C4.32767878,3.80829796 5.52411774,2.611859 7,2.611859 C8.47588226,2.611859 9.67232122,3.80829796 9.67232122,5.28418022 C9.67232122,6.1230885 9.28576196,6.87171103 8.68104866,7.36164256 C9.98154262,7.74730743 11.1163823,8.57564947 11.8820797,9.70942008 C12.3284029,8.90743553 12.5826784,7.98341238 12.5826784,7 C12.5826784,3.91677186 10.0832281,1.41732161 7,1.41732161 Z M7,4.09590693 C6.34373479,4.09590693 5.81172671,4.627915 5.81172671,5.28418022 C5.81172671,5.94044543 6.34373479,6.47245351 7,6.47245351 C7.65626521,6.47245351 8.18827329,5.94044543 8.18827329,5.28418022 C8.18827329,4.627915 7.65626521,4.09590693 7,4.09590693 Z" id="Shape"></path>
        </g>
        <path d="M12.8263159,6.00000006 C13.7925477,6.00231686 14.6989608,6.47261652 15.263158,7.26437505 L15.263158,7.26437505 L16.1894738,8.65625005 L22.3684211,8.65625005 C23.821802,8.65625005 25,9.84549368 25,11.3125 L25,11.3125 L25.0011597,12.0709285 C24.505698,11.7842086 23.9766326,11.5491046 23.4213171,11.3729701 L23.4210526,11.3125 C23.4210526,10.7256975 22.9497734,10.25 22.3684211,10.25 L22.3684211,10.25 L16.0526317,10.25 C15.6386723,10.2491681 15.2490351,10.0525231 15.0000001,9.71875005 L15.0000001,9.71875005 L13.9473685,8.12500005 C13.6686684,7.79091285 13.2589998,7.59677706 12.8263159,7.59375005 L12.8263159,7.59375005 L8.75263171,7.59375005 C8.38071551,7.59790253 8.03857844,7.79985844 7.85263172,8.12500005 L7.85263172,8.12500005 L6.73157909,10.0109375 C6.63512657,10.1713132 6.58246476,10.354608 6.57894752,10.5421875 L6.57894752,10.5421875 L6.57894752,20.34375 C6.57894752,20.9305526 7.05022672,21.40625 7.63157909,21.40625 L7.63157909,21.40625 L13.3681988,21.4062219 C13.5448501,21.9670462 13.7816117,22.5012106 14.0709285,23.0011597 L7.63157909,23 C6.17819818,23 5.00000016,21.8107564 5.00000016,20.34375 L5.00000016,20.34375 L5.00000016,10.5528125 C4.99983332,10.0719569 5.128987,9.60007418 5.37368437,9.18750005 L5.37368437,9.18750005 L6.49473699,7.29093755 C6.9702461,6.48994336 7.82751669,5.99980415 8.75263171,6.00000006 L8.75263171,6.00000006 Z" id="Combined-Shape" fill="#222222"></path>
    </g>
</svg>