<?xml version="1.0" encoding="UTF-8"?>
<svg width="32px" height="32px" viewBox="0 0 32 32" version="1.1" xmlns="http://www.w3.org/2000/svg" xmlns:xlink="http://www.w3.org/1999/xlink">
    <title>icon/32/user</title>
    <g id="icon/32/user" stroke="none" stroke-width="1" fill="none" fill-rule="evenodd">
        <rect id="Rectangle" x="0" y="0" width="32" height="32"></rect>
        <g id="Group" transform="translate(6.000000, 6.000000)" fill="#222222">
            <path d="M10,0 C15.5228475,0 20,4.4771525 20,10 C20,15.5228475 15.5228475,20 10,20 C4.4771525,20 0,15.5228475 0,10 C0,4.4771525 4.4771525,0 10,0 Z M10,1.7679558 C5.45356753,1.7679558 1.7679558,5.45356753 1.7679558,10 C1.7679558,14.5464325 5.45356753,18.2320442 10,18.2320442 C14.5464325,18.2320442 18.2320442,14.5464325 18.2320442,10 C18.2320442,5.45356753 14.5464325,1.7679558 10,1.7679558 Z" id="Shape"></path>
            <path d="M10,10.3107735 C13.311235,10.3107735 16.264537,12.2467674 17.6213085,15.1868716 L17.7516181,15.4841945 L16.0296912,16.199634 C15.0257446,13.783325 12.6616368,12.1754144 10,12.1754144 C7.37984002,12.1754144 5.05133407,13.7337353 4.02194484,16.0786655 L3.9129656,16.3424112 L2.17452826,15.668081 C3.41688388,12.4652622 6.50683081,10.3107735 10,10.3107735 Z" id="Path" fill-rule="nonzero"></path>
            <path d="M10,3.78453039 C12.0596254,3.78453039 13.7292818,5.45418671 13.7292818,7.51381215 C13.7292818,9.5734376 12.0596254,11.2430939 10,11.2430939 C7.94037455,11.2430939 6.27071823,9.5734376 6.27071823,7.51381215 C6.27071823,5.45418671 7.94037455,3.78453039 10,3.78453039 Z M10,5.64917127 C8.97018728,5.64917127 8.13535912,6.48399943 8.13535912,7.51381215 C8.13535912,8.54362488 8.97018728,9.37845304 10,9.37845304 C11.0298127,9.37845304 11.8646409,8.54362488 11.8646409,7.51381215 C11.8646409,6.48399943 11.0298127,5.64917127 10,5.64917127 Z" id="Oval-Copy" fill-rule="nonzero"></path>
        </g>
    </g>
</svg>