<?xml version="1.0" encoding="UTF-8"?>
<svg width="35px" height="35px" viewBox="0 0 35 35" version="1.1" xmlns="http://www.w3.org/2000/svg" xmlns:xlink="http://www.w3.org/1999/xlink">
    <!-- Generator: Sketch 52.6 (67491) - http://www.bohemiancoding.com/sketch -->
    <title>Artboard Copy 5</title>
    <desc>Created with Sketch.</desc>
    <g id="Artboard-Copy-5" stroke="none" stroke-width="1" fill="none" fill-rule="evenodd">
        <rect id="Rectangle-Copy-2" fill="#FFFFFF" opacity="0.4" x="0" y="0" width="35" height="35"></rect>
        <path d="M10,25 L18,25 L18,27 L10,27 L8,27 L8,15 L10,15 L10,25 Z M27,10 L27,18 L25,18 L25,10 L15,10 L15,8 L27,8 L27,10 Z M22.6244069,23.6992092 L14.08,15.1548023 L15.1548023,14.08 L23.6992092,22.6244069 L26.9236162,19.4 L26.9236162,26.9236162 L19.4,26.9236162 L22.6244069,23.6992092 Z M8,13 L8,8 L13,8 L13,13 L8,13 Z" id="Combined-Shape" fill="#D53337"></path>
    </g>
</svg>